<?xml version="1.0" standalone="no"?>
<!DOCTYPE svg PUBLIC "-//W3C//DTD SVG 1.1//EN" "http://www.w3.org/Graphics/SVG/1.1/DTD/svg11.dtd" >
<svg>
<metadata>
Created by FontForge 20090914 at Fri Feb 24 15:46:26 2012
 By root
Copyright (c) 2011 Fontstage (info@fontstage.com), with Reserved Font Name "Passion"
</metadata>
<defs>
<font id="PassionOne-Bold" horiz-adv-x="500" >
  <font-face 
    font-family="Passion One"
    font-weight="700"
    font-stretch="normal"
    units-per-em="1000"
    panose-1="2 0 5 6 5 0 0 2 0 4"
    ascent="800"
    descent="-200"
    x-height="479"
    cap-height="621"
    bbox="-42 -181 1285 832"
    underline-thickness="50"
    underline-position="-50"
    stemh="131"
    stemv="147"
    unicode-range="U+0020-U+FB04"
  />
<missing-glyph horiz-adv-x="190" 
 />
    <glyph glyph-name=".notdef" horiz-adv-x="190" 
 />
    <glyph glyph-name="A" unicode="A" horiz-adv-x="563" 
d="M563 0h-210l-20 96h-111l-21 -96h-201l129 621h305zM318 225l-38 208h-4l-39 -208h81z" />
    <glyph glyph-name="B" unicode="B" horiz-adv-x="563" 
d="M549 182c0 -113 -62 -182 -226 -182h-283v621h279c149 0 219 -52 219 -163c0 -62 -25 -99 -70 -128v-4c50 -23 81 -65 81 -144zM327 183c0 49 -10 69 -45 69h-29v-128h29c35 0 45 11 45 59zM318 415c0 41 -11 56 -36 56h-29v-109h30c24 0 35 13 35 53z" />
    <glyph glyph-name="C" unicode="C" horiz-adv-x="465" 
d="M314 158c27 0 74 9 129 22l32 -159c-60 -19 -121 -31 -189 -31c-191 0 -266 114 -266 315c0 203 75 326 281 326c68 0 123 -14 174 -34l-33 -178c-58 17 -103 29 -131 29c-57 0 -75 -48 -75 -144c0 -99 18 -146 78 -146z" />
    <glyph glyph-name="D" unicode="D" horiz-adv-x="599" 
d="M577 324c0 -182 -67 -324 -296 -324h-241v621h246c223 0 291 -118 291 -297zM359 307c0 101 -11 151 -85 151h-21v-302h25c73 0 81 55 81 151z" />
    <glyph glyph-name="E" unicode="E" horiz-adv-x="461" 
d="M436 0h-396v621h410l-14 -165h-182v-75h159v-144h-159v-85h196z" />
    <glyph glyph-name="F" unicode="F" horiz-adv-x="440" 
d="M436 456h-182v-85h138v-144h-138v-227h-214v621h410z" />
    <glyph glyph-name="G" unicode="G" horiz-adv-x="592" 
d="M317 443c-69 0 -79 -50 -79 -134c0 -103 10 -156 76 -156c18 0 29 2 43 5l5 1v60h-50v138h236v-357h-151l-15 32h-4c-27 -22 -62 -42 -123 -42c-164 0 -234 120 -234 316c0 197 67 325 278 325c79 0 144 -10 212 -31l-33 -188c-65 18 -119 31 -161 31z" />
    <glyph glyph-name="H" unicode="H" horiz-adv-x="613" 
d="M573 0h-211v219h-108v-219h-214v621h214v-232h108v232h211v-621z" />
    <glyph glyph-name="I" unicode="I" horiz-adv-x="303" 
d="M257 0h-211v621h211v-621z" />
    <glyph glyph-name="J" unicode="J" horiz-adv-x="326" 
d="M282 621v-491c0 -107 -45 -140 -194 -140h-73l-11 148h50c15 0 18 5 18 17v466h210z" />
    <glyph glyph-name="K" unicode="K" horiz-adv-x="552" 
d="M552 0h-235l-63 206h-11v-206h-203v621h203v-246h11l79 246h229l-129 -323z" />
    <glyph glyph-name="L" unicode="L" horiz-adv-x="413" 
d="M413 0h-373v621h214v-460h173z" />
    <glyph glyph-name="M" unicode="M" horiz-adv-x="754" 
d="M716 0h-189v296h-5l-59 -296h-175l-58 296h-5v-296h-187l24 621h266l47 -281h9l46 281h263z" />
    <glyph glyph-name="N" unicode="N" horiz-adv-x="607" 
d="M567 0h-204l-126 245h-7v-245h-190v621h211l118 -253h6v253h192v-621z" />
    <glyph glyph-name="O" unicode="O" horiz-adv-x="609" 
d="M306 631c206 0 283 -97 283 -311c0 -223 -81 -330 -287 -330c-203 0 -282 108 -282 323c0 223 81 318 286 318zM305 459c-59 0 -67 -26 -67 -132v-44c0 -111 10 -134 71 -134c59 0 65 23 65 131v46c0 109 -11 133 -69 133z" />
    <glyph glyph-name="P" unicode="P" horiz-adv-x="525" 
d="M293 194h-43v-194h-210v621h242c162 0 235 -60 235 -215c0 -156 -73 -212 -224 -212zM312 393c0 49 -9 70 -45 70h-21v-140h26c32 0 40 21 40 70z" />
    <glyph glyph-name="Q" unicode="Q" horiz-adv-x="613" 
d="M304 631c206 0 283 -97 283 -311c0 -148 -35 -225 -123 -278v-4h142l-13 -141h-42c-62 0 -112 9 -162 39l-89 54c-213 0 -282 120 -282 323c0 223 82 318 286 318zM303 459c-59 0 -67 -26 -67 -132v-44c0 -111 10 -134 71 -134c59 0 65 23 65 131v46
c0 109 -11 133 -69 133z" />
    <glyph glyph-name="R" unicode="R" horiz-adv-x="563" 
d="M531 421c0 -84 -29 -124 -80 -158l93 -263h-221l-62 214h-16v-214h-205v621h265c154 0 226 -63 226 -200zM308 399c0 43 -13 58 -41 58h-26v-121h25c29 0 42 13 42 63z" />
    <glyph glyph-name="S" unicode="S" horiz-adv-x="483" 
d="M239 631c78 0 149 -8 217 -20l-23 -176c-70 14 -130 25 -162 25c-26 0 -41 -6 -41 -24c0 -15 16 -18 39 -28c67 -30 204 -64 204 -206c0 -137 -80 -212 -232 -212c-83 0 -146 10 -213 27l14 169c87 -22 139 -34 181 -34c21 0 31 7 31 22s-13 21 -34 31
c-67 32 -210 62 -210 216c0 133 84 210 229 210z" />
    <glyph glyph-name="T" unicode="T" horiz-adv-x="476" 
d="M474 452h-132v-452h-213v452h-139l9 169h487z" />
    <glyph glyph-name="U" unicode="U" horiz-adv-x="613" 
d="M309 166c35 0 48 19 48 55v400h214v-413c0 -149 -99 -218 -267 -218c-169 0 -262 70 -262 216v415h218v-401c0 -35 14 -54 49 -54z" />
    <glyph glyph-name="V" unicode="V" horiz-adv-x="574" 
d="M564 621l-120 -621h-307l-127 621h231l48 -381h12l43 381h220z" />
    <glyph glyph-name="W" unicode="W" horiz-adv-x="754" 
d="M734 621l-66 -621h-238l-47 252h-8l-40 -252h-238l-77 621h196l25 -285h9l38 285h189l42 -285h7l19 285h189z" />
    <glyph glyph-name="X" unicode="X" horiz-adv-x="573" 
d="M573 0h-229l-56 169h-9l-60 -169h-219l120 316l-108 305h233l46 -174h8l51 174h208l-100 -306z" />
    <glyph glyph-name="Y" unicode="Y" horiz-adv-x="536" 
d="M536 621l-164 -424v-197h-213v198l-159 423h225l44 -228h6l42 228h219z" />
    <glyph glyph-name="Z" unicode="Z" horiz-adv-x="527" 
d="M515 0h-470l-7 107l192 343h-207l-11 171h487l7 -105l-180 -357h189v-159z" />
    <glyph glyph-name="Eth" unicode="&#xd0;" horiz-adv-x="599" 
d="M577 324c0 -182 -67 -324 -296 -324h-241v235h-49v138h49v248h246c223 0 291 -118 291 -297zM298 235h-45v-79h25c73 0 81 55 81 151c0 101 -11 151 -85 151h-21v-85h45v-138z" />
    <glyph glyph-name="Thorn" unicode="&#xde;" horiz-adv-x="516" 
d="M280 114h-30v-114h-210v621h210v-80h19c162 0 235 -60 235 -215c0 -156 -73 -212 -224 -212zM299 316c0 49 -9 70 -45 70h-8v-140h13c32 0 40 21 40 70z" />
    <glyph glyph-name="AE" unicode="&#xc6;" horiz-adv-x="764" 
d="M739 0h-396v96h-107l-33 -96h-208l220 621h538l-14 -165h-182v-75h159v-144h-159v-85h196zM343 225v208h-4l-67 -208h71z" />
    <glyph glyph-name="OE" unicode="&#x152;" horiz-adv-x="794" 
d="M769 0h-370c-29 -6 -61 -10 -97 -10c-203 0 -282 108 -282 323c0 223 81 318 286 318c38 0 71 -4 100 -10h377l-14 -165h-182v-75h159v-144h-159v-85h196zM305 459c-59 0 -67 -26 -67 -132v-44c0 -111 10 -134 71 -134c47 0 60 15 64 76v150c-4 67 -20 84 -68 84z" />
    <glyph glyph-name="Agrave" unicode="&#xc0;" horiz-adv-x="563" 
d="M563 0h-210l-20 96h-111l-21 -96h-201l129 621h305zM318 225l-38 208h-4l-39 -208h81zM240 651l-121 124h191l65 -124h-135z" />
    <glyph glyph-name="Acircumflex" unicode="&#xc2;" horiz-adv-x="563" 
d="M563 0h-210l-20 96h-111l-21 -96h-201l129 621h305zM318 225l-38 208h-4l-39 -208h81zM363 780l74 -125h-124l-34 50l-34 -50h-125l74 125h169z" />
    <glyph glyph-name="Aacute" unicode="&#xc1;" horiz-adv-x="563" 
d="M563 0h-210l-20 96h-111l-21 -96h-201l129 621h305zM318 225l-38 208h-4l-39 -208h81zM449 785l-132 -124h-132l61 124h203z" />
    <glyph glyph-name="Adieresis" unicode="&#xc4;" horiz-adv-x="563" 
d="M563 0h-210l-20 96h-111l-21 -96h-201l129 621h305zM318 225l-38 208h-4l-39 -208h81zM117 707c0 41 27 62 71 62c52 0 76 -21 76 -62c0 -44 -24 -63 -76 -63c-44 0 -71 19 -71 63zM294 707c0 41 27 62 71 62c52 0 76 -21 76 -62c0 -44 -24 -63 -76 -63
c-44 0 -71 19 -71 63z" />
    <glyph glyph-name="Atilde" unicode="&#xc3;" horiz-adv-x="563" 
d="M563 0h-210l-20 96h-111l-21 -96h-201l129 621h305zM318 225l-38 208h-4l-39 -208h81zM443 784v-11c0 -71 -12 -129 -101 -129c-42 0 -73 13 -106 24v-30h-126v12c0 78 20 129 97 129c34 0 69 -12 110 -24v29h126z" />
    <glyph glyph-name="Aring" unicode="&#xc5;" horiz-adv-x="563" 
d="M277 724c68 0 98 -26 98 -75c0 -11 -1 -20 -4 -28h63l129 -621h-210l-20 96h-111l-21 -96h-201l129 621h54c-2 7 -3 15 -3 23c0 54 34 80 97 80zM315 225l-34 184h-4l-35 -184h73zM258 646c0 -14 4 -24 15 -25h7c13 1 16 11 16 25s-3 26 -19 26c-14 0 -19 -12 -19 -26z
" />
    <glyph glyph-name="Ccedilla" unicode="&#xc7;" horiz-adv-x="470" 
d="M312 448c-57 0 -75 -48 -75 -144c0 -99 18 -146 78 -146c27 0 74 9 129 22l32 -159c-52 -16 -104 -27 -160 -30c-4 -4 -6 -8 -6 -12c0 -11 70 -17 70 -73c0 -49 -40 -74 -109 -74c-42 0 -78 9 -109 30l37 71c25 -17 52 -31 70 -31c4 0 7 2 7 6s-7 8 -13 11l-26 12
c-14 8 -23 16 -23 32c0 12 5 23 14 31c-148 22 -207 132 -207 311c0 203 75 326 281 326c68 0 123 -14 174 -34l-33 -178c-58 17 -103 29 -131 29z" />
    <glyph glyph-name="Egrave" unicode="&#xc8;" horiz-adv-x="461" 
d="M436 0h-396v621h410l-14 -165h-182v-75h159v-144h-159v-85h196zM206 651l-121 124h191l65 -124h-135z" />
    <glyph glyph-name="Ecircumflex" unicode="&#xca;" horiz-adv-x="461" 
d="M436 0h-396v621h410l-14 -165h-182v-75h159v-144h-159v-85h196zM332 770l74 -125h-124l-34 50l-34 -50h-125l74 125h169z" />
    <glyph glyph-name="Eacute" unicode="&#xc9;" horiz-adv-x="461" 
d="M436 0h-396v621h410l-14 -165h-182v-75h159v-144h-159v-85h196zM425 775l-132 -124h-132l61 124h203z" />
    <glyph glyph-name="Edieresis" unicode="&#xcb;" horiz-adv-x="461" 
d="M436 0h-396v621h410l-14 -165h-182v-75h159v-144h-159v-85h196zM84 707c0 41 27 62 71 62c52 0 76 -21 76 -62c0 -44 -24 -63 -76 -63c-44 0 -71 19 -71 63zM261 707c0 41 27 62 71 62c52 0 76 -21 76 -62c0 -44 -24 -63 -76 -63c-44 0 -71 19 -71 63z" />
    <glyph glyph-name="Igrave" unicode="&#xcc;" horiz-adv-x="303" 
d="M257 0h-211v621h211v-621zM113 661l-121 124h191l65 -124h-135z" />
    <glyph glyph-name="Icircumflex" unicode="&#xce;" horiz-adv-x="303" 
d="M259 0h-211v621h211v-621zM241 780l74 -125h-124l-34 50l-34 -50h-125l74 125h169z" />
    <glyph glyph-name="Iacute" unicode="&#xcd;" horiz-adv-x="303" 
d="M258 0h-211v621h211v-621zM326 785l-132 -124h-132l61 124h203z" />
    <glyph glyph-name="Idieresis" unicode="&#xcf;" horiz-adv-x="303" 
d="M261 0h-211v621h211v-621zM-7 717c0 41 27 62 71 62c52 0 76 -21 76 -62c0 -44 -24 -63 -76 -63c-44 0 -71 19 -71 63zM170 717c0 41 27 62 71 62c52 0 76 -21 76 -62c0 -44 -24 -63 -76 -63c-44 0 -71 19 -71 63z" />
    <glyph glyph-name="Itilde" unicode="&#x128;" horiz-adv-x="303" 
d="M257 0h-211v621h211v-621zM327 799v-12c0 -74 -13 -136 -107 -136c-44 0 -77 14 -111 26v-32h-133v13c0 82 21 136 102 136c36 0 73 -13 116 -26v31h133z" />
    <glyph glyph-name="IJ" unicode="&#x132;" horiz-adv-x="624" 
d="M257 0h-211v621h211v-621zM580 621v-491c0 -107 -45 -140 -194 -140h-73l-11 148h50c15 0 18 5 18 17v466h210z" />
    <glyph glyph-name="Jcircumflex" unicode="&#x134;" horiz-adv-x="326" 
d="M282 621v-491c0 -107 -45 -140 -194 -140h-73l-11 148h50c15 0 18 5 18 17v466h210zM262 784l78 -131h-131l-35 52l-36 -52h-132l78 131h178z" />
    <glyph glyph-name="Ldotaccent" unicode="&#x13f;" horiz-adv-x="486" 
d="M413 0h-373v621h214v-460h173zM282 333c0 60 40 85 107 85c70 0 107 -24 107 -85s-37 -82 -107 -82c-68 0 -107 20 -107 82z" />
    <glyph glyph-name="Lslash" unicode="&#x141;" horiz-adv-x="421" 
d="M421 0h-373v155l-40 -24v157l40 24v309h214v-180l48 29v-156l-48 -29v-124h173z" />
    <glyph glyph-name="Nacute" unicode="&#x143;" horiz-adv-x="607" 
d="M567 0h-204l-126 245h-7v-245h-190v621h211l118 -253h6v253h192v-621zM492 789l-139 -130h-139l64 130h214z" />
    <glyph glyph-name="Ntilde" unicode="&#xd1;" horiz-adv-x="607" 
d="M567 0h-204l-126 245h-7v-245h-190v621h211l118 -253h6v253h192v-621zM469 784v-11c0 -71 -12 -129 -101 -129c-42 0 -73 13 -106 24v-30h-126v12c0 78 20 129 97 129c34 0 69 -12 110 -24v29h126z" />
    <glyph glyph-name="Ograve" unicode="&#xd2;" horiz-adv-x="609" 
d="M306 631c206 0 283 -97 283 -311c0 -223 -81 -330 -287 -330c-203 0 -282 108 -282 323c0 223 81 318 286 318zM305 459c-59 0 -67 -26 -67 -132v-44c0 -111 10 -134 71 -134c59 0 65 23 65 131v46c0 109 -11 133 -69 133zM245 661l-121 124h191l65 -124h-135z" />
    <glyph glyph-name="Ocircumflex" unicode="&#xd4;" horiz-adv-x="609" 
d="M306 631c206 0 283 -97 283 -311c0 -223 -81 -330 -287 -330c-203 0 -282 108 -282 323c0 223 81 318 286 318zM305 459c-59 0 -67 -26 -67 -132v-44c0 -111 10 -134 71 -134c59 0 65 23 65 131v46c0 109 -11 133 -69 133zM389 780l74 -125h-124l-34 50l-34 -50h-125
l74 125h169z" />
    <glyph glyph-name="Oacute" unicode="&#xd3;" horiz-adv-x="609" 
d="M306 631c206 0 283 -97 283 -311c0 -223 -81 -330 -287 -330c-203 0 -282 108 -282 323c0 223 81 318 286 318zM305 459c-59 0 -67 -26 -67 -132v-44c0 -111 10 -134 71 -134c59 0 65 23 65 131v46c0 109 -11 133 -69 133zM489 785l-132 -124h-132l61 124h203z" />
    <glyph glyph-name="Odieresis" unicode="&#xd6;" horiz-adv-x="609" 
d="M306 631c206 0 283 -97 283 -311c0 -223 -81 -330 -287 -330c-203 0 -282 108 -282 323c0 223 81 318 286 318zM305 459c-59 0 -67 -26 -67 -132v-44c0 -111 10 -134 71 -134c59 0 65 23 65 131v46c0 109 -11 133 -69 133zM141 707c0 41 27 62 71 62c52 0 76 -21 76 -62
c0 -44 -24 -63 -76 -63c-44 0 -71 19 -71 63zM318 707c0 41 27 62 71 62c52 0 76 -21 76 -62c0 -44 -24 -63 -76 -63c-44 0 -71 19 -71 63z" />
    <glyph glyph-name="Otilde" unicode="&#xd5;" horiz-adv-x="609" 
d="M306 631c206 0 283 -97 283 -311c0 -223 -81 -330 -287 -330c-203 0 -282 108 -282 323c0 223 81 318 286 318zM305 459c-59 0 -67 -26 -67 -132v-44c0 -111 10 -134 71 -134c59 0 65 23 65 131v46c0 109 -11 133 -69 133zM462 794v-11c0 -71 -12 -129 -101 -129
c-42 0 -73 13 -106 24v-30h-126v12c0 78 20 129 97 129c34 0 69 -12 110 -24v29h126z" />
    <glyph glyph-name="Oslash" unicode="&#xd8;" horiz-adv-x="609" 
d="M306 631c15 0 29 -1 43 -2l24 52h209l-57 -126c45 -51 64 -129 64 -235c0 -223 -81 -330 -287 -330c-11 0 -21 1 -30 1l-27 -60h-212l59 131c-50 53 -72 137 -72 251c0 223 81 318 286 318zM305 459c-59 0 -67 -26 -67 -132v-44c0 -111 10 -134 71 -134
c59 0 65 23 65 131v46c0 109 -11 133 -69 133z" />
    <glyph glyph-name="Racute" unicode="&#x154;" horiz-adv-x="563" 
d="M531 421c0 -84 -29 -124 -80 -158l93 -263h-221l-62 214h-16v-214h-205v621h265c154 0 226 -63 226 -200zM308 399c0 43 -13 58 -41 58h-26v-121h25c29 0 42 13 42 63zM441 789l-139 -130h-139l64 130h214z" />
    <glyph glyph-name="Rcaron" unicode="&#x158;" horiz-adv-x="563" 
d="M531 421c0 -84 -29 -124 -80 -158l93 -263h-221l-62 214h-16v-214h-205v621h265c154 0 226 -63 226 -200zM308 399c0 43 -13 58 -41 58h-26v-121h25c29 0 42 13 42 63zM160 657l-78 131h131l35 -52l36 52h132l-78 -131h-178z" />
    <glyph glyph-name="Rcommaaccent" unicode="&#x156;" horiz-adv-x="563" 
d="M531 421c0 -84 -29 -124 -80 -158l93 -263h-221l-62 214h-16v-214h-205v621h265c154 0 226 -63 226 -200zM308 399c0 43 -13 58 -41 58h-26v-121h25c29 0 42 13 42 63zM291 -10c51 0 82 -24 82 -64c0 -44 -34 -70 -81 -90l-75 9l42 42c-28 5 -50 19 -50 48
c0 36 31 55 82 55z" />
    <glyph glyph-name="Scaron" unicode="&#x160;" horiz-adv-x="487" 
d="M238 631c78 0 149 -8 217 -20l-23 -176c-70 14 -130 25 -162 25c-26 0 -41 -6 -41 -24c0 -15 16 -18 39 -28c67 -30 204 -64 204 -206c0 -137 -80 -212 -232 -212c-83 0 -146 10 -213 27l14 169c87 -22 139 -34 181 -34c21 0 31 7 31 22s-13 21 -34 31
c-67 32 -210 62 -210 216c0 133 84 210 229 210zM150 649l-74 125h124l34 -50l34 50h125l-74 -125h-169z" />
    <glyph glyph-name="Ugrave" unicode="&#xd9;" horiz-adv-x="601" 
d="M303 166c35 0 48 19 48 55v400h214v-413c0 -149 -99 -218 -267 -218c-169 0 -262 70 -262 216v415h218v-401c0 -35 14 -54 49 -54zM245 651l-121 124h191l65 -124h-135z" />
    <glyph glyph-name="Ucircumflex" unicode="&#xdb;" horiz-adv-x="601" 
d="M303 166c35 0 48 19 48 55v400h214v-413c0 -149 -99 -218 -267 -218c-169 0 -262 70 -262 216v415h218v-401c0 -35 14 -54 49 -54zM385 770l74 -125h-124l-34 50l-34 -50h-125l74 125h169z" />
    <glyph glyph-name="Uacute" unicode="&#xda;" horiz-adv-x="601" 
d="M303 166c35 0 48 19 48 55v400h214v-413c0 -149 -99 -218 -267 -218c-169 0 -262 70 -262 216v415h218v-401c0 -35 14 -54 49 -54zM500 775l-132 -124h-132l61 124h203z" />
    <glyph glyph-name="Udieresis" unicode="&#xdc;" horiz-adv-x="601" 
d="M303 166c35 0 48 19 48 55v400h214v-413c0 -149 -99 -218 -267 -218c-169 0 -262 70 -262 216v415h218v-401c0 -35 14 -54 49 -54zM139 707c0 41 27 62 71 62c52 0 76 -21 76 -62c0 -44 -24 -63 -76 -63c-44 0 -71 19 -71 63zM316 707c0 41 27 62 71 62
c52 0 76 -21 76 -62c0 -44 -24 -63 -76 -63c-44 0 -71 19 -71 63z" />
    <glyph glyph-name="Yacute" unicode="&#xdd;" horiz-adv-x="536" 
d="M536 621l-164 -424v-197h-213v198l-159 423h225l44 -228h6l42 228h219zM465 775l-132 -124h-132l61 124h203z" />
    <glyph glyph-name="Ydieresis" unicode="&#x178;" horiz-adv-x="536" 
d="M536 621l-164 -424v-197h-213v198l-159 423h225l44 -228h6l42 228h219zM108 717c0 41 27 62 71 62c52 0 76 -21 76 -62c0 -44 -24 -63 -76 -63c-44 0 -71 19 -71 63zM285 717c0 41 27 62 71 62c52 0 76 -21 76 -62c0 -44 -24 -63 -76 -63c-44 0 -71 19 -71 63z" />
    <glyph glyph-name="Zcaron" unicode="&#x17d;" horiz-adv-x="533" 
d="M518 0h-470l-7 107l192 343h-207l-11 171h487l7 -105l-180 -357h189v-159zM188 649l-74 125h124l34 -50l34 50h125l-74 -125h-169z" />
    <glyph glyph-name="ampersand" unicode="&#x26;" horiz-adv-x="694" 
d="M260 -10c-156 0 -231 51 -231 194c0 97 44 139 113 165c-31 35 -50 75 -50 125c0 115 67 167 215 167c153 0 215 -60 215 -163c0 -91 -32 -121 -118 -173l73 -79h5v94h158v-73c0 -52 -16 -86 -53 -114v-4h85l-18 -139h-94c-51 0 -82 7 -117 30h-7
c-42 -21 -78 -30 -176 -30zM228 182c0 -35 16 -49 51 -49h53v4l-86 87c-13 -8 -18 -20 -18 -42zM313 475c-22 0 -30 -8 -30 -28c0 -22 12 -30 30 -46c21 16 31 24 31 44c0 22 -9 30 -31 30z" />
    <glyph glyph-name="a" unicode="a" horiz-adv-x="499" 
d="M14 135c0 119 86 148 236 159v18c0 10 -6 18 -19 18c-37 0 -107 -14 -175 -31l-31 158c84 20 167 34 257 34c125 0 171 -46 171 -141c0 -60 -6 -132 -6 -200c0 -19 14 -23 48 -23l-19 -133c-30 -2 -53 -4 -81 -4c-44 0 -84 13 -106 39h-7c-27 -22 -62 -39 -122 -39
c-96 0 -146 56 -146 145zM227 119c19 0 29 10 29 30v38c-35 -5 -52 -15 -52 -40c0 -18 7 -28 23 -28z" />
    <glyph glyph-name="b" unicode="b" horiz-adv-x="522" 
d="M507 251c0 -164 -30 -261 -190 -261c-44 0 -87 11 -115 31l-8 -21h-164v641h201v-170c21 10 58 20 92 20c156 0 184 -80 184 -240zM299 237c0 62 -3 100 -32 100c-11 0 -22 -4 -31 -8v-193c9 -2 22 -4 32 -4c30 0 31 35 31 105z" />
    <glyph glyph-name="c" unicode="c" horiz-adv-x="397" 
d="M224 238c0 -65 7 -97 40 -97c29 0 61 5 101 13l22 -139c-53 -15 -93 -25 -148 -25c-151 0 -224 95 -224 241c0 149 74 260 227 260c63 0 105 -9 153 -27l-21 -158c-36 13 -80 28 -110 28c-32 0 -40 -36 -40 -96z" />
    <glyph glyph-name="d" unicode="d" horiz-adv-x="543" 
d="M427 -10c-41 0 -85 9 -107 39h-4c-25 -21 -59 -39 -109 -39c-146 0 -192 103 -192 254c0 160 66 247 188 247c33 0 62 -5 84 -16v166h201v-491c0 -18 11 -23 43 -23l-18 -133c-26 -2 -54 -4 -86 -4zM224 239c0 -70 1 -105 30 -105c12 0 21 0 33 4v194c-10 4 -21 7 -32 7
c-29 0 -31 -38 -31 -100z" />
    <glyph glyph-name="e" unicode="e" horiz-adv-x="501" 
d="M258 330c-30 0 -37 -20 -37 -53h72v16c0 24 -8 37 -35 37zM263 491c168 0 221 -77 221 -193c0 -29 -3 -65 -8 -112h-251c3 -39 26 -54 66 -54c35 0 76 8 152 21l17 -135c-68 -18 -128 -28 -198 -28c-162 0 -247 96 -247 247c0 162 82 254 248 254z" />
    <glyph glyph-name="f" unicode="f" horiz-adv-x="332" 
d="M210 648c48 0 100 -2 149 -5l-16 -157c-34 3 -63 6 -77 6c-6 0 -10 -3 -10 -10v-17h85l-11 -135h-72v-330h-209v330h-48v135h48v48c0 86 52 135 161 135z" />
    <glyph glyph-name="g" unicode="g" horiz-adv-x="513" 
d="M241 491h272v-122h-74v-4c19 -15 31 -42 31 -71c0 -106 -65 -157 -202 -157h-63c-5 0 -8 -3 -8 -9s3 -9 8 -9h159c88 0 128 -34 128 -104c0 -114 -89 -162 -253 -162c-122 0 -214 20 -214 106c0 26 13 39 35 49v4c-29 15 -46 38 -46 77c0 44 30 71 76 90
c-46 33 -70 74 -70 145c0 110 82 167 221 167zM250 338c-20 0 -26 -17 -26 -49c0 -33 8 -51 28 -51s26 18 26 49c0 35 -6 51 -28 51zM197 -29h114c6 0 9 1 9 7v6c0 4 -3 7 -9 7h-114c-4 0 -7 -3 -7 -7v-6c0 -5 3 -7 7 -7z" />
    <glyph glyph-name="h" unicode="h" horiz-adv-x="539" 
d="M366 491c97 0 136 -47 136 -126v-365h-211v310c0 9 -4 16 -13 16c-14 0 -28 -4 -40 -10v-316h-208v641h201v-192c29 20 73 42 135 42z" />
    <glyph glyph-name="i" unicode="i" horiz-adv-x="280" 
d="M245 0h-208v469h208v-469zM33 570c0 60 40 85 107 85c70 0 107 -24 107 -85s-37 -82 -107 -82c-68 0 -107 20 -107 82z" />
    <glyph glyph-name="j" unicode="j" horiz-adv-x="285" 
d="M250 469v-473c0 -105 -44 -138 -192 -138h-66l-17 149h50c16 0 18 3 18 15v447h207zM37 570c0 60 40 85 107 85c70 0 107 -24 107 -85s-37 -82 -107 -82c-68 0 -107 20 -107 82z" />
    <glyph glyph-name="k" unicode="k" horiz-adv-x="514" 
d="M522 0h-225l-58 157h-4v-157h-205v641h205v-330h4l70 168h217l-112 -249z" />
    <glyph glyph-name="l" unicode="l" horiz-adv-x="286" 
d="M32 124v517h205v-471c0 -19 11 -27 37 -27l-15 -153h-82c-97 0 -145 42 -145 134z" />
    <glyph glyph-name="m" unicode="m" horiz-adv-x="795" 
d="M627 491c103 0 138 -57 138 -136v-355h-211v310c0 9 -4 16 -12 16c-15 0 -28 -5 -40 -10v-316h-211v310c0 9 -4 16 -13 16c-15 0 -27 -4 -40 -10v-316h-208v479h189l6 -31c36 23 80 43 138 43c61 0 98 -18 119 -48c38 27 76 48 145 48z" />
    <glyph glyph-name="n" unicode="n" horiz-adv-x="532" 
d="M362 491c105 0 140 -57 140 -136v-355h-211v310c0 9 -4 16 -13 16c-14 0 -28 -4 -40 -10v-316h-208v479h189l6 -31c35 24 79 43 137 43z" />
    <glyph glyph-name="o" unicode="o" horiz-adv-x="510" 
d="M258 491c164 0 237 -73 237 -243c0 -184 -70 -258 -237 -258c-170 0 -243 76 -243 251c0 177 77 250 243 250zM256 344c-29 0 -32 -20 -32 -92v-24c0 -81 2 -101 35 -101c25 0 29 19 29 96v28c0 73 -2 93 -32 93z" />
    <glyph glyph-name="p" unicode="p" horiz-adv-x="522" 
d="M312 -10c-32 0 -50 5 -74 14v-141h-208v616h172l8 -22c29 21 66 34 113 34c149 0 184 -75 184 -242c0 -171 -37 -259 -195 -259zM299 237c0 62 -3 100 -32 100c-11 0 -22 -4 -31 -8v-193c9 -2 22 -4 32 -4c30 0 31 35 31 105z" />
    <glyph glyph-name="q" unicode="q" horiz-adv-x="526" 
d="M15 244c0 156 66 247 188 247c47 0 82 -11 109 -34l9 22h172v-616h-208v145c-22 -10 -46 -18 -78 -18c-146 0 -192 93 -192 254zM224 239c0 -70 1 -105 30 -105c12 0 21 1 33 4v193c-10 4 -21 8 -32 8c-29 0 -31 -38 -31 -100z" />
    <glyph glyph-name="r" unicode="r" horiz-adv-x="378" 
d="M238 268v-268h-206v479h178l6 -32h4c31 29 65 39 146 39l-6 -166h-68c-39 0 -54 -11 -54 -52z" />
    <glyph glyph-name="s" unicode="s" horiz-adv-x="403" 
d="M205 491c64 0 126 -9 184 -20l-21 -151c-61 12 -136 26 -160 26c-9 0 -13 -3 -13 -10c0 -9 9 -11 17 -14c100 -32 185 -71 185 -173c0 -97 -50 -159 -193 -159c-59 0 -122 8 -178 21l13 147c71 -17 133 -30 166 -30c9 0 14 2 14 9c0 9 -5 11 -16 15
c-122 42 -197 82 -197 183c0 102 72 156 199 156z" />
    <glyph glyph-name="t" unicode="t" horiz-adv-x="366" 
d="M205 -10c-100 0 -151 32 -151 131v217h-53v135h63l13 89h185v-89h91v-135h-92v-185c0 -9 4 -13 12 -13c19 0 40 2 79 4l-6 -144c-50 -5 -92 -10 -141 -10z" />
    <glyph glyph-name="u" unicode="u" horiz-adv-x="539" 
d="M172 -10c-104 0 -142 56 -142 136v353h210v-314c0 -10 4 -16 15 -16c16 0 26 5 38 10v320h209v-477h-200v25h-6c-33 -21 -68 -37 -124 -37z" />
    <glyph glyph-name="v" unicode="v" horiz-adv-x="496" 
d="M500 479l-115 -479h-281l-116 479h217l40 -256h7l44 256h204z" />
    <glyph glyph-name="w" unicode="w" horiz-adv-x="668" 
d="M655 479l-70 -479h-223l-34 164h-5l-32 -164h-219l-70 479h194l18 -213h6l28 213h167l26 -213h7l20 213h187z" />
    <glyph glyph-name="x" unicode="x" horiz-adv-x="496" 
d="M496 0h-221l-28 119h-6l-26 -119h-215l100 231l-99 248h227l21 -123h6c8 35 17 90 24 123h214l-98 -243z" />
    <glyph glyph-name="y" unicode="y" horiz-adv-x="503" 
d="M511 479l-139 -487c-28 -97 -73 -129 -207 -129h-120l-23 143h80c16 0 26 3 26 17c0 10 -2 18 -5 28l-131 428h220l42 -259h4l47 259h206z" />
    <glyph glyph-name="z" unicode="z" horiz-adv-x="446" 
d="M434 0h-419l-5 113l157 209h-162v157h419l6 -105l-153 -225h157v-149z" />
    <glyph glyph-name="eth" unicode="&#xf0;" horiz-adv-x="521" 
d="M215 400c19 0 44 -1 61 -4l4 4c-8 18 -21 35 -40 47l-116 -53v97l15 9v4c-22 4 -46 4 -74 4v147c105 0 172 -12 237 -34l111 50v-117l-18 -11c72 -63 111 -148 111 -278c0 -169 -77 -275 -253 -275c-151 0 -238 60 -238 218c0 126 72 192 200 192zM263 283
c-32 0 -36 -38 -36 -89c0 -49 5 -74 32 -74c33 0 36 37 36 88c0 49 -3 75 -32 75z" />
    <glyph glyph-name="thorn" unicode="&#xfe;" horiz-adv-x="519" 
d="M312 -10c-32 0 -50 5 -74 14v-141h-208v778h201v-171c25 13 58 21 92 21c149 0 184 -75 184 -242c0 -171 -37 -259 -195 -259zM299 237c0 62 -3 100 -32 100c-11 0 -22 -4 -31 -8v-193c9 -2 22 -4 32 -4c30 0 31 35 31 105z" />
    <glyph glyph-name="germandbls" unicode="&#xdf;" horiz-adv-x="567" 
d="M259 459v-459h-210v330h-48v135h48v8c0 121 83 176 242 176c168 0 247 -68 247 -186c0 -63 -16 -94 -61 -124v-5c56 -25 84 -69 84 -148c0 -120 -60 -192 -196 -192c-29 0 -55 2 -88 6v145c15 -1 22 -1 28 -1c28 0 46 16 46 47c0 42 -27 55 -74 55v137c40 0 53 19 53 52
c0 29 -11 53 -42 53c-19 0 -29 -8 -29 -29z" />
    <glyph glyph-name="ae" unicode="&#xe6;" horiz-adv-x="731" 
d="M491 491c168 0 223 -77 223 -193c0 -15 -1 -41 -8 -112h-251c3 -39 25 -55 65 -55c35 0 72 5 153 22l17 -135c-68 -18 -128 -28 -198 -28c-68 0 -121 17 -159 49c-35 -23 -85 -49 -173 -49c-96 0 -146 56 -146 145c0 119 86 148 236 159v18c0 10 -6 18 -19 18
c-37 0 -107 -14 -175 -31l-31 158c84 20 165 34 255 34c43 0 76 -9 101 -25c29 17 63 25 110 25zM227 119c19 0 29 10 29 30v38c-35 -5 -52 -15 -52 -40c0 -18 7 -28 23 -28zM488 330c-29 0 -37 -20 -37 -53h72v15c0 24 -8 38 -35 38z" />
    <glyph glyph-name="oe" unicode="&#x153;" horiz-adv-x="775" 
d="M258 491c57 0 103 -9 139 -28c36 18 82 28 138 28c168 0 223 -77 223 -193c0 -15 -1 -41 -8 -112h-251c3 -39 25 -55 65 -55c35 0 72 5 153 22l17 -135c-68 -18 -128 -28 -198 -28c-53 0 -98 11 -134 30c-36 -20 -84 -30 -144 -30c-170 0 -243 76 -243 251
c0 177 77 250 243 250zM256 344c-29 0 -32 -20 -32 -92v-24c0 -81 2 -101 35 -101c25 0 29 19 29 96v28c0 73 -2 93 -32 93zM532 330c-29 0 -37 -20 -37 -53h72v15c0 24 -8 38 -35 38z" />
    <glyph glyph-name="ff" unicode="&#xfb00;" horiz-adv-x="628" 
d="M506 648c48 0 100 -2 149 -5l-16 -157c-34 3 -63 6 -77 6c-6 0 -10 -3 -10 -10v-17h85l-11 -135h-72v-330h-209v330h-87v-330h-209v330h-48v135h48v48c0 86 52 135 161 135c45 0 84 -2 129 -4l-14 -155c-26 2 -46 3 -59 3c-6 0 -10 -3 -10 -10v-17h89v48
c0 86 52 135 161 135z" />
    <glyph glyph-name="fi" unicode="&#xfb01;" horiz-adv-x="589" 
d="M553 0h-208v330h-87v-330h-209v330h-48v135h48v48c0 86 52 135 161 135c28 0 82 -1 121 -3l-12 -156c-26 2 -45 3 -53 3c-6 0 -10 -3 -10 -10v-17h297v-465zM341 570c0 60 40 85 107 85c70 0 107 -24 107 -85s-37 -82 -107 -82c-68 0 -107 20 -107 82z" />
    <glyph glyph-name="fj" horiz-adv-x="587" 
d="M553 465v-469c0 -105 -44 -138 -192 -138h-66l-17 149h50c16 0 18 3 18 15v308h-88v-330h-209v330h-48v135h48v48c0 86 52 135 161 135c48 0 83 -1 121 -3l-12 -156c-25 2 -41 3 -53 3c-6 0 -10 -3 -10 -10v-17h297zM339 570c0 60 40 85 107 85c70 0 107 -24 107 -85
s-37 -82 -107 -82c-68 0 -107 20 -107 82z" />
    <glyph glyph-name="fl" unicode="&#xfb02;" horiz-adv-x="599" 
d="M345 124v206h-87v-330h-209v330h-48v135h48v48c0 86 52 135 161 135c44 0 85 -4 121 -7l-12 -152c-34 3 -39 3 -53 3c-6 0 -10 -3 -10 -10v-17h89v176h205v-471c0 -19 11 -27 37 -27l-15 -153h-82c-97 0 -145 42 -145 134z" />
    <glyph glyph-name="ffi" unicode="&#xfb03;" horiz-adv-x="885" 
d="M850 0h-208v330h-87v-330h-209v330h-88v-330h-209v330h-48v135h48v48c0 86 52 135 161 135c45 0 84 -2 129 -4l-14 -155c-26 2 -46 3 -59 3c-6 0 -10 -3 -10 -10v-17h90v48c0 86 52 135 161 135c28 0 82 -1 121 -3l-12 -156c-26 2 -45 3 -53 3c-6 0 -10 -3 -10 -10v-17
h297v-465zM637 570c0 60 40 85 107 85c70 0 107 -24 107 -85s-37 -82 -107 -82c-68 0 -107 20 -107 82z" />
    <glyph glyph-name="ffl" unicode="&#xfb04;" horiz-adv-x="895" 
d="M506 648c44 0 85 -4 121 -7l-12 -152c-34 3 -39 3 -53 3c-6 0 -10 -3 -10 -10v-17h89v176h205v-471c0 -19 11 -27 37 -27l-15 -153h-82c-97 0 -145 42 -145 134v206h-87v-330h-209v330h-87v-330h-209v330h-48v135h48v48c0 86 52 135 161 135c45 0 84 -2 129 -4l-14 -155
c-26 2 -46 3 -59 3c-6 0 -10 -3 -10 -10v-17h89v48c0 86 52 135 161 135z" />
    <glyph glyph-name="agrave" unicode="&#xe0;" horiz-adv-x="501" 
d="M14 135c0 119 86 148 236 159v18c0 10 -6 18 -19 18c-37 0 -107 -14 -175 -31l-31 158c84 20 167 34 257 34c125 0 171 -46 171 -141c0 -60 -6 -132 -6 -200c0 -19 14 -23 48 -23l-19 -133c-30 -2 -53 -4 -81 -4c-44 0 -84 13 -106 39h-7c-27 -22 -62 -39 -122 -39
c-96 0 -146 56 -146 145zM227 119c19 0 29 10 29 30v38c-35 -5 -52 -15 -52 -40c0 -18 7 -28 23 -28zM219 517l-127 130h201l68 -130h-142z" />
    <glyph glyph-name="acircumflex" unicode="&#xe2;" horiz-adv-x="501" 
d="M14 135c0 119 86 148 236 159v18c0 10 -6 18 -19 18c-37 0 -107 -14 -175 -31l-31 158c84 20 167 34 257 34c125 0 171 -46 171 -141c0 -60 -6 -132 -6 -200c0 -19 14 -23 48 -23l-19 -133c-30 -2 -53 -4 -81 -4c-44 0 -84 13 -106 39h-7c-27 -22 -62 -39 -122 -39
c-96 0 -146 56 -146 145zM227 119c19 0 29 10 29 30v38c-35 -5 -52 -15 -52 -40c0 -18 7 -28 23 -28zM335 642l78 -131h-131l-35 52l-36 -52h-132l78 131h178z" />
    <glyph glyph-name="aacute" unicode="&#xe1;" horiz-adv-x="501" 
d="M14 135c0 119 86 148 236 159v18c0 10 -6 18 -19 18c-37 0 -107 -14 -175 -31l-31 158c84 20 167 34 257 34c125 0 171 -46 171 -141c0 -60 -6 -132 -6 -200c0 -19 14 -23 48 -23l-19 -133c-30 -2 -53 -4 -81 -4c-44 0 -84 13 -106 39h-7c-27 -22 -62 -39 -122 -39
c-96 0 -146 56 -146 145zM227 119c19 0 29 10 29 30v38c-35 -5 -52 -15 -52 -40c0 -18 7 -28 23 -28zM455 647l-139 -130h-139l64 130h214z" />
    <glyph glyph-name="adieresis" unicode="&#xe4;" horiz-adv-x="501" 
d="M14 135c0 119 86 148 236 159v18c0 10 -6 18 -19 18c-37 0 -107 -14 -175 -31l-31 158c84 20 167 34 257 34c125 0 171 -46 171 -141c0 -60 -6 -132 -6 -200c0 -19 14 -23 48 -23l-19 -133c-30 -2 -53 -4 -81 -4c-44 0 -84 13 -106 39h-7c-27 -22 -62 -39 -122 -39
c-96 0 -146 56 -146 145zM227 119c19 0 29 10 29 30v38c-35 -5 -52 -15 -52 -40c0 -18 7 -28 23 -28zM73 576c0 43 29 65 75 65c55 0 80 -22 80 -65c0 -46 -25 -66 -80 -66c-46 0 -75 19 -75 66zM259 576c0 43 29 65 75 65c55 0 80 -22 80 -65c0 -46 -25 -66 -80 -66
c-46 0 -75 19 -75 66z" />
    <glyph glyph-name="atilde" unicode="&#xe3;" horiz-adv-x="501" 
d="M14 135c0 119 86 148 236 159v18c0 10 -6 18 -19 18c-37 0 -107 -14 -175 -31l-31 158c84 20 167 34 257 34c125 0 171 -46 171 -141c0 -60 -6 -132 -6 -200c0 -19 14 -23 48 -23l-19 -133c-30 -2 -53 -4 -81 -4c-44 0 -84 13 -106 39h-7c-27 -22 -62 -39 -122 -39
c-96 0 -146 56 -146 145zM227 119c19 0 29 10 29 30v38c-35 -5 -52 -15 -52 -40c0 -18 7 -28 23 -28zM417 657v-12c0 -74 -13 -136 -107 -136c-44 0 -77 14 -111 26v-32h-133v13c0 82 21 136 102 136c36 0 73 -13 116 -26v31h133z" />
    <glyph glyph-name="aring" unicode="&#xe5;" horiz-adv-x="501" 
d="M14 135c0 119 86 148 236 159v18c0 10 -6 18 -19 18c-37 0 -107 -14 -175 -31l-31 158c84 20 167 34 257 34c125 0 171 -46 171 -141c0 -60 -6 -132 -6 -200c0 -19 14 -23 48 -23l-19 -133c-30 -2 -53 -4 -81 -4c-44 0 -84 13 -106 39h-7c-27 -22 -62 -39 -122 -39
c-96 0 -146 56 -146 145zM227 119c19 0 29 10 29 30v38c-35 -5 -52 -15 -52 -40c0 -18 7 -28 23 -28zM225 586c0 -15 5 -26 20 -26c17 0 20 11 20 26s-4 28 -20 28c-15 0 -20 -13 -20 -28zM245 668c71 0 103 -27 103 -79c0 -55 -32 -84 -103 -84c-67 0 -102 30 -102 79
c0 57 35 84 102 84z" />
    <glyph glyph-name="ccedilla" unicode="&#xe7;" horiz-adv-x="394" 
d="M239 491c63 0 105 -9 153 -27l-21 -158c-36 13 -80 28 -110 28c-32 0 -40 -36 -40 -96c0 -65 7 -97 40 -97c29 0 61 5 101 13l22 -139c-47 -14 -84 -23 -131 -25c-3 -4 -5 -8 -5 -11c0 -11 70 -17 70 -73c0 -49 -40 -74 -109 -74c-42 0 -78 9 -109 30l37 71
c25 -17 52 -31 70 -31c4 0 7 2 7 6s-7 8 -13 11l-26 12c-14 8 -23 16 -23 32c0 14 7 25 18 34c-106 24 -158 111 -158 234c0 149 74 260 227 260z" />
    <glyph glyph-name="egrave" unicode="&#xe8;" horiz-adv-x="498" 
d="M255 330c-30 0 -37 -20 -37 -53h72v16c0 24 -8 37 -35 37zM260 491c168 0 221 -77 221 -193c0 -29 -3 -65 -8 -112h-251c3 -39 26 -54 66 -54c35 0 76 8 152 21l17 -135c-68 -18 -128 -28 -198 -28c-162 0 -247 96 -247 247c0 162 82 254 248 254zM223 517l-127 130h201
l68 -130h-142z" />
    <glyph glyph-name="ecircumflex" unicode="&#xea;" horiz-adv-x="498" 
d="M255 330c-30 0 -37 -20 -37 -53h72v16c0 24 -8 37 -35 37zM260 491c168 0 221 -77 221 -193c0 -29 -3 -65 -8 -112h-251c3 -39 26 -54 66 -54c35 0 76 8 152 21l17 -135c-68 -18 -128 -28 -198 -28c-162 0 -247 96 -247 247c0 162 82 254 248 254zM345 642l78 -131h-131
l-35 52l-36 -52h-132l78 131h178z" />
    <glyph glyph-name="eacute" unicode="&#xe9;" horiz-adv-x="498" 
d="M255 330c-30 0 -37 -20 -37 -53h72v16c0 24 -8 37 -35 37zM260 491c168 0 221 -77 221 -193c0 -29 -3 -65 -8 -112h-251c3 -39 26 -54 66 -54c35 0 76 8 152 21l17 -135c-68 -18 -128 -28 -198 -28c-162 0 -247 96 -247 247c0 162 82 254 248 254zM455 647l-139 -130
h-139l64 130h214z" />
    <glyph glyph-name="edieresis" unicode="&#xeb;" horiz-adv-x="498" 
d="M255 330c-30 0 -37 -20 -37 -53h72v16c0 24 -8 37 -35 37zM260 491c168 0 221 -77 221 -193c0 -29 -3 -65 -8 -112h-251c3 -39 26 -54 66 -54c35 0 76 8 152 21l17 -135c-68 -18 -128 -28 -198 -28c-162 0 -247 96 -247 247c0 162 82 254 248 254zM86 576
c0 43 29 65 75 65c55 0 80 -22 80 -65c0 -46 -25 -66 -80 -66c-46 0 -75 19 -75 66zM272 576c0 43 29 65 75 65c55 0 80 -22 80 -65c0 -46 -25 -66 -80 -66c-46 0 -75 19 -75 66z" />
    <glyph glyph-name="hbar" unicode="&#x127;" horiz-adv-x="539" 
d="M366 491c97 0 136 -47 136 -126v-365h-211v310c0 9 -4 16 -13 16c-14 0 -28 -4 -40 -10v-316h-208v506h-30v101h30v34h201v-34h74v-101h-74v-57c29 20 73 42 135 42z" />
    <glyph glyph-name="dotlessi" unicode="&#x131;" horiz-adv-x="280" 
d="M244 0h-208v469h208v-469z" />
    <glyph glyph-name="igrave" unicode="&#xec;" horiz-adv-x="280" 
d="M245 0h-208v469h208v-469zM97 517l-127 130h201l68 -130h-142z" />
    <glyph glyph-name="icircumflex" unicode="&#xee;" horiz-adv-x="280" 
d="M246 0h-208v469h208v-469zM230 642l78 -131h-131l-35 52l-36 -52h-132l78 131h178z" />
    <glyph glyph-name="iacute" unicode="&#xed;" horiz-adv-x="280" 
d="M246 0h-208v469h208v-469zM319 647l-139 -130h-139l64 130h214z" />
    <glyph glyph-name="idieresis" unicode="&#xef;" horiz-adv-x="280" 
d="M245 0h-208v469h208v-469zM-28 576c0 43 29 65 75 65c55 0 80 -22 80 -65c0 -46 -25 -66 -80 -66c-46 0 -75 19 -75 66zM158 576c0 43 29 65 75 65c55 0 80 -22 80 -65c0 -46 -25 -66 -80 -66c-46 0 -75 19 -75 66z" />
    <glyph glyph-name="itilde" unicode="&#x129;" horiz-adv-x="280" 
d="M244 0h-208v469h208v-469zM316 657v-12c0 -74 -13 -136 -107 -136c-44 0 -77 14 -111 26v-32h-133v13c0 82 21 136 102 136c36 0 73 -13 116 -26v31h133z" />
    <glyph glyph-name="ij" unicode="&#x133;" horiz-adv-x="565" 
d="M519 469v-473c0 -105 -44 -138 -192 -138h-66l-16 142h-208v469h208v-462h49c16 0 18 3 18 15v447h207zM33 570c0 60 40 85 107 85c70 0 107 -24 107 -85s-37 -82 -107 -82c-68 0 -107 20 -107 82zM307 570c0 60 40 85 107 85c70 0 107 -24 107 -85s-37 -82 -107 -82
c-68 0 -107 20 -107 82z" />
    <glyph glyph-name="jcircumflex" unicode="&#x135;" horiz-adv-x="285" 
d="M250 469v-473c0 -105 -44 -138 -192 -138h-66l-17 149h50c16 0 18 3 18 15v447h207zM232 642l78 -131h-131l-35 52l-36 -52h-132l78 131h178z" />
    <glyph glyph-name="kcommaaccent" unicode="&#x137;" horiz-adv-x="514" 
d="M522 0h-225l-58 157h-4v-157h-205v641h205v-330h4l70 168h217l-112 -249zM261 -10c51 0 82 -24 82 -64c0 -44 -34 -70 -81 -90l-75 9l42 42c-28 5 -50 19 -50 48c0 36 31 55 82 55z" />
    <glyph glyph-name="kgreenlandic" unicode="&#x138;" horiz-adv-x="519" 
d="M523 0h-217l-62 170h-4v-170h-210v479h210v-191h4c49 125 79 203 226 203h30l-7 -191c-34 0 -46 -15 -69 -56z" />
    <glyph glyph-name="ldot" unicode="&#x140;" horiz-adv-x="515" 
d="M32 124v517h205v-471c0 -19 11 -27 37 -27l-15 -153h-82c-97 0 -145 42 -145 134zM270 305c0 63 40 91 117 91c79 0 116 -27 116 -91c0 -68 -37 -91 -116 -91c-77 0 -117 24 -117 91z" />
    <glyph glyph-name="lslash" unicode="&#x142;" horiz-adv-x="286" 
d="M32 124v46l-32 -19v157l32 19v314h205v-190l36 22v-156l-36 -22v-125c0 -19 11 -27 37 -27l-15 -153h-82c-97 0 -145 42 -145 134z" />
    <glyph glyph-name="nacute" unicode="&#x144;" horiz-adv-x="532" 
d="M362 491c105 0 140 -57 140 -136v-355h-211v310c0 9 -4 16 -13 16c-14 0 -28 -4 -40 -10v-316h-208v479h189l6 -31c35 24 79 43 137 43zM455 647l-139 -130h-139l64 130h214z" />
    <glyph glyph-name="ntilde" unicode="&#xf1;" horiz-adv-x="539" 
d="M362 491c105 0 140 -57 140 -136v-355h-211v310c0 9 -4 16 -13 16c-14 0 -28 -4 -40 -10v-316h-208v479h189l6 -31c35 24 79 43 137 43zM437 657v-12c0 -74 -13 -136 -107 -136c-44 0 -77 14 -111 26v-32h-133v13c0 82 21 136 102 136c36 0 73 -13 116 -26v31h133z" />
    <glyph glyph-name="ograve" unicode="&#xf2;" horiz-adv-x="504" 
d="M255 491c164 0 237 -73 237 -243c0 -184 -70 -258 -237 -258c-170 0 -243 76 -243 251c0 177 77 250 243 250zM253 344c-29 0 -32 -20 -32 -92v-24c0 -81 2 -101 35 -101c25 0 29 19 29 96v28c0 73 -2 93 -32 93zM218 517l-127 130h201l68 -130h-142z" />
    <glyph glyph-name="ocircumflex" unicode="&#xf4;" horiz-adv-x="504" 
d="M255 491c164 0 237 -73 237 -243c0 -184 -70 -258 -237 -258c-170 0 -243 76 -243 251c0 177 77 250 243 250zM253 344c-29 0 -32 -20 -32 -92v-24c0 -81 2 -101 35 -101c25 0 29 19 29 96v28c0 73 -2 93 -32 93zM342 642l78 -131h-131l-35 52l-36 -52h-132l78 131h178z
" />
    <glyph glyph-name="oacute" unicode="&#xf3;" horiz-adv-x="504" 
d="M255 491c164 0 237 -73 237 -243c0 -184 -70 -258 -237 -258c-170 0 -243 76 -243 251c0 177 77 250 243 250zM253 344c-29 0 -32 -20 -32 -92v-24c0 -81 2 -101 35 -101c25 0 29 19 29 96v28c0 73 -2 93 -32 93zM445 647l-139 -130h-139l64 130h214z" />
    <glyph glyph-name="odieresis" unicode="&#xf6;" horiz-adv-x="504" 
d="M255 491c164 0 237 -73 237 -243c0 -184 -70 -258 -237 -258c-170 0 -243 76 -243 251c0 177 77 250 243 250zM253 344c-29 0 -32 -20 -32 -92v-24c0 -81 2 -101 35 -101c25 0 29 19 29 96v28c0 73 -2 93 -32 93zM82 576c0 43 29 65 75 65c55 0 80 -22 80 -65
c0 -46 -25 -66 -80 -66c-46 0 -75 19 -75 66zM268 576c0 43 29 65 75 65c55 0 80 -22 80 -65c0 -46 -25 -66 -80 -66c-46 0 -75 19 -75 66z" />
    <glyph glyph-name="otilde" unicode="&#xf5;" horiz-adv-x="504" 
d="M255 491c164 0 237 -73 237 -243c0 -184 -70 -258 -237 -258c-170 0 -243 76 -243 251c0 177 77 250 243 250zM253 344c-29 0 -32 -20 -32 -92v-24c0 -81 2 -101 35 -101c25 0 29 19 29 96v28c0 73 -2 93 -32 93zM423 657v-12c0 -74 -13 -136 -107 -136
c-44 0 -77 14 -111 26v-32h-133v13c0 82 21 136 102 136c36 0 73 -13 116 -26v31h133z" />
    <glyph glyph-name="oslash" unicode="&#xf8;" horiz-adv-x="510" 
d="M258 491c10 0 19 0 29 -1l26 58h169l-49 -110c42 -40 62 -102 62 -190c0 -184 -70 -258 -237 -258c-9 0 -17 0 -25 1l-27 -60h-172l49 109c-47 40 -68 106 -68 201c0 177 77 250 243 250zM256 344c-29 0 -32 -20 -32 -92v-24c0 -81 2 -101 35 -101c25 0 29 19 29 96v28
c0 73 -2 93 -32 93z" />
    <glyph glyph-name="rcaron" unicode="&#x159;" horiz-adv-x="378" 
d="M238 268v-268h-206v479h178l6 -32h4c31 29 65 39 146 39l-6 -166h-68c-39 0 -54 -11 -54 -52zM100 515l-78 131h131l35 -52l36 52h132l-78 -131h-178z" />
    <glyph glyph-name="rcommaaccent" unicode="&#x157;" horiz-adv-x="378" 
d="M238 268v-268h-206v479h178l6 -32h4c31 29 65 39 146 39l-6 -166h-68c-39 0 -54 -11 -54 -52zM169 -10c51 0 82 -24 82 -64c0 -44 -34 -70 -81 -90l-75 9l42 42c-28 5 -50 19 -50 48c0 36 31 55 82 55z" />
    <glyph glyph-name="scaron" unicode="&#x161;" horiz-adv-x="403" 
d="M205 491c64 0 126 -9 184 -20l-21 -151c-61 12 -136 26 -160 26c-9 0 -13 -3 -13 -10c0 -9 9 -11 17 -14c100 -32 185 -71 185 -173c0 -97 -50 -159 -193 -159c-59 0 -122 8 -178 21l13 147c71 -17 133 -30 166 -30c9 0 14 2 14 9c0 9 -5 11 -16 15
c-122 42 -197 82 -197 183c0 102 72 156 199 156zM110 515l-78 131h131l35 -52l36 52h132l-78 -131h-178z" />
    <glyph glyph-name="ugrave" unicode="&#xf9;" horiz-adv-x="539" 
d="M172 -10c-104 0 -142 56 -142 136v353h210v-314c0 -10 4 -16 15 -16c16 0 26 5 38 10v320h209v-477h-200v25h-6c-33 -21 -68 -37 -124 -37zM217 517l-127 130h201l68 -130h-142z" />
    <glyph glyph-name="ucircumflex" unicode="&#xfb;" horiz-adv-x="539" 
d="M172 -10c-104 0 -142 56 -142 136v353h210v-314c0 -10 4 -16 15 -16c16 0 26 5 38 10v320h209v-477h-200v25h-6c-33 -21 -68 -37 -124 -37zM354 642l78 -131h-131l-35 52l-36 -52h-132l78 131h178z" />
    <glyph glyph-name="uacute" unicode="&#xfa;" horiz-adv-x="539" 
d="M172 -10c-104 0 -142 56 -142 136v353h210v-314c0 -10 4 -16 15 -16c16 0 26 5 38 10v320h209v-477h-200v25h-6c-33 -21 -68 -37 -124 -37zM475 647l-139 -130h-139l64 130h214z" />
    <glyph glyph-name="udieresis" unicode="&#xfc;" horiz-adv-x="539" 
d="M172 -10c-104 0 -142 56 -142 136v353h210v-314c0 -10 4 -16 15 -16c16 0 26 5 38 10v320h209v-477h-200v25h-6c-33 -21 -68 -37 -124 -37zM94 576c0 43 29 65 75 65c55 0 80 -22 80 -65c0 -46 -25 -66 -80 -66c-46 0 -75 19 -75 66zM280 576c0 43 29 65 75 65
c55 0 80 -22 80 -65c0 -46 -25 -66 -80 -66c-46 0 -75 19 -75 66z" />
    <glyph glyph-name="yacute" unicode="&#xfd;" horiz-adv-x="519" 
d="M519 479l-139 -487c-28 -97 -73 -129 -207 -129h-120l-23 143h80c16 0 26 3 26 17c0 10 -2 18 -5 28l-131 428h220l42 -259h4l47 259h206zM469 647l-139 -130h-139l64 130h214z" />
    <glyph glyph-name="ydieresis" unicode="&#xff;" horiz-adv-x="519" 
d="M519 479l-139 -487c-28 -97 -73 -129 -207 -129h-120l-23 143h80c16 0 26 3 26 17c0 10 -2 18 -5 28l-131 428h220l42 -259h4l47 259h206zM87 576c0 43 29 65 75 65c55 0 80 -22 80 -65c0 -46 -25 -66 -80 -66c-46 0 -75 19 -75 66zM273 576c0 43 29 65 75 65
c55 0 80 -22 80 -65c0 -46 -25 -66 -80 -66c-46 0 -75 19 -75 66z" />
    <glyph glyph-name="zcaron" unicode="&#x17e;" horiz-adv-x="446" 
d="M434 0h-419l-5 113l157 209h-162v157h419l6 -105l-153 -225h157v-149zM128 515l-78 131h131l35 -52l36 52h132l-78 -131h-178z" />
    <glyph glyph-name="at" unicode="@" horiz-adv-x="957" 
d="M713 128c46 0 58 64 58 150c0 154 -72 250 -272 250c-230 0 -313 -105 -313 -290c0 -212 103 -282 292 -282c72 0 146 7 210 15v-129c-70 -14 -138 -22 -230 -22c-289 0 -434 136 -434 420c0 259 172 428 479 428c282 0 430 -150 430 -389c0 -190 -85 -289 -266 -289
c-69 0 -103 10 -136 39h-7c-27 -22 -62 -39 -122 -39c-96 0 -146 56 -146 145c0 119 86 148 236 159v18c0 10 -6 18 -19 18c-37 0 -107 -14 -175 -31l-22 154c84 20 158 38 248 38c125 0 171 -46 171 -141c0 -60 -6 -132 -6 -200c0 -14 9 -22 24 -22zM469 119
c19 0 29 10 29 30v38c-35 -5 -52 -15 -52 -40c0 -18 7 -28 23 -28z" />
    <glyph glyph-name="registered" unicode="&#xae;" horiz-adv-x="999" 
d="M494 652c315 0 457 -158 457 -417c0 -275 -141 -416 -457 -416c-310 0 -446 141 -446 416c0 272 150 417 446 417zM696 312c0 -59 -14 -92 -52 -117l58 -176c48 43 68 113 68 214c0 196 -74 269 -276 269c-182 0 -271 -75 -271 -271c0 -190 80 -269 271 -269
c81 0 141 13 185 40h-142l-42 158h-15v-158h-152v458h201c114 0 167 -47 167 -148zM532 296c0 32 -10 43 -31 43h-24v-90h24c21 0 31 10 31 47z" />
    <glyph glyph-name="copyright" unicode="&#xa9;" horiz-adv-x="979" 
d="M533 116c19 0 56 5 97 15l19 -117c-45 -14 -95 -24 -146 -24c-140 0 -196 85 -196 233c0 149 56 241 208 241c49 0 96 -11 134 -26l-20 -131c-43 12 -78 19 -99 19c-42 0 -56 -33 -56 -104c0 -73 14 -106 59 -106zM500 502c-182 0 -261 -75 -261 -271
c0 -190 68 -269 259 -269c202 0 268 77 268 271c0 196 -64 269 -266 269zM494 652c315 0 457 -158 457 -417c0 -275 -141 -416 -457 -416c-310 0 -446 141 -446 416c0 272 150 417 446 417z" />
    <glyph glyph-name="paragraph" unicode="&#xb6;" horiz-adv-x="657" 
d="M584 -137h-168v615h-24v-615h-169v324c-128 4 -207 79 -207 214c0 146 97 228 256 228h312v-766z" />
    <glyph glyph-name="section" unicode="&#xa7;" horiz-adv-x="495" 
d="M187 313c0 -49 27 -65 122 -113c0 44 -29 65 -122 113zM467 248c0 -71 -21 -111 -50 -149c9 -21 11 -45 11 -67c0 -112 -68 -179 -202 -179c-51 0 -108 6 -181 19l14 168c69 -16 134 -27 167 -27c10 0 17 7 17 20c0 52 -215 69 -215 239c0 65 22 102 52 135
c-9 18 -14 40 -14 59c0 116 89 175 207 175c45 0 75 -1 166 -16l-28 -163c-65 13 -117 19 -139 19c-9 0 -13 -4 -13 -12c0 -39 208 -53 208 -221z" />
    <glyph glyph-name="asterisk" unicode="*" horiz-adv-x="467" 
d="M443 464l-92 -30l67 -91l-111 -64l-70 75l-67 -74l-111 64l56 89l-91 31l32 118l100 -22l10 97h139l8 -97l93 21z" />
    <glyph glyph-name="dagger" unicode="&#x2020;" horiz-adv-x="449" 
d="M22 323v156h109v128h182v-128h114v-156h-114v-460h-182v460h-109z" />
    <glyph glyph-name="daggerdbl" unicode="&#x2021;" horiz-adv-x="449" 
d="M22 0v156h109v167h-109v156h109v128h182v-128h114v-156h-114v-167h114v-156h-114v-137h-182v137h-109z" />
    <glyph glyph-name="ordfeminine" unicode="&#xaa;" horiz-adv-x="416" 
d="M44 389c0 84 60 104 165 112v12c0 7 -4 13 -13 13c-26 0 -75 -10 -123 -22l-22 111c59 14 117 24 180 24c88 0 120 -33 120 -99c0 -42 -4 -92 -4 -140c0 -13 10 -16 33 -16l-13 -93c-21 -2 -37 -3 -57 -3c-30 0 -58 9 -74 27h-5c-19 -15 -43 -27 -85 -27
c-67 0 -102 39 -102 101zM193 378c13 0 20 7 20 21v27c-24 -4 -36 -11 -36 -28c0 -13 5 -20 16 -20z" />
    <glyph glyph-name="ordmasculine" unicode="&#xba;" horiz-adv-x="424" 
d="M214 639c114 0 165 -51 165 -170c0 -129 -49 -181 -165 -181c-119 0 -171 53 -171 176c0 124 54 175 171 175zM212 536c-20 0 -22 -14 -22 -65v-16c0 -57 1 -71 24 -71c18 0 21 13 21 67v20c0 51 -2 65 -23 65z" />
    <glyph glyph-name="trademark" unicode="&#x2122;" horiz-adv-x="656" 
d="M636 276h-109v155h-6l-14 -155h-106l-14 155h-6v-155h-106l12 345h150l17 -149h4l15 149h149zM269 526h-62v-250h-118v250h-69l6 95h249z" />
    <glyph glyph-name="numbersign" unicode="#" horiz-adv-x="554" 
d="M534 312h-82l-5 -27h64v-136h-84l-23 -149h-159l21 149h-25l-23 -149h-167l25 149h-56v136h78l5 27h-59v134h78l25 146h162l-22 -146h23l22 146h162l-22 -146h62v-134zM293 317h-28l-7 -37h28z" />
    <glyph glyph-name="zero" unicode="0" horiz-adv-x="539" 
d="M319 300v19c0 93 0 145 -50 145c-47 0 -47 -52 -47 -145v-19c0 -108 0 -161 51 -161c46 0 46 52 46 161zM519 309c0 -204 -41 -319 -250 -319c-205 0 -249 115 -249 319c0 205 43 322 249 322c209 0 250 -117 250 -322z" />
    <glyph glyph-name="one" unicode="1" horiz-adv-x="325" 
d="M281 0h-207v452h-70v113l111 56h166v-621z" />
    <glyph glyph-name="two" unicode="2" horiz-adv-x="469" 
d="M234 631c148 0 219 -73 219 -191s-51 -185 -145 -282v-4h147v-154h-427l-10 108c109 107 218 202 218 284c0 29 -15 48 -47 48c-29 0 -85 -11 -152 -29l-33 175c81 31 153 45 230 45z" />
    <glyph glyph-name="three" unicode="3" horiz-adv-x="469" 
d="M228 631c140 0 220 -65 220 -175c0 -61 -20 -98 -73 -128v-4c57 -25 82 -74 82 -142c0 -121 -80 -192 -235 -192c-74 0 -120 10 -204 42l44 154c62 -19 112 -33 137 -33c28 0 39 15 39 43c0 31 -14 44 -46 44h-88v140h87c26 0 34 13 34 38c0 26 -9 42 -40 42
c-28 0 -72 -15 -136 -37l-45 157c83 40 149 51 224 51z" />
    <glyph glyph-name="four" unicode="4" horiz-adv-x="548" 
d="M540 117h-67v-117h-207v117h-242l-16 123l218 376h247v-353h75zM271 259v130h-4l-70 -130h74z" />
    <glyph glyph-name="five" unicode="5" horiz-adv-x="472" 
d="M456 212c0 -134 -60 -222 -227 -222c-79 0 -134 9 -199 31l16 171c77 -20 134 -35 166 -35c33 0 42 16 42 45s-7 43 -29 43c-10 0 -18 -6 -23 -16l-171 20v367h395v-159h-200v-65c17 5 39 8 61 8c110 0 169 -58 169 -188z" />
    <glyph glyph-name="six" unicode="6" horiz-adv-x="512" 
d="M266 250c-13 0 -29 -1 -42 -4c-1 -8 -2 -17 -2 -22c0 -58 15 -89 51 -89c29 0 41 18 41 58s-14 57 -48 57zM311 393c121 0 197 -56 197 -186c0 -136 -65 -217 -237 -217c-171 0 -255 97 -255 276c0 247 121 365 439 365l-13 -164c-115 0 -183 -23 -209 -81
c23 5 51 7 78 7z" />
    <glyph glyph-name="seven" unicode="7" horiz-adv-x="465" 
d="M461 519l-192 -519h-231l184 447h-220v169h459v-97z" />
    <glyph glyph-name="eight" unicode="8" horiz-adv-x="519" 
d="M258 631c150 0 239 -61 239 -167c0 -73 -20 -111 -76 -148v-4c57 -27 84 -67 84 -131c0 -124 -85 -191 -247 -191c-147 0 -244 61 -244 183c0 71 28 108 84 134v4c-53 36 -78 77 -78 149c0 106 91 171 238 171zM261 131c28 0 41 14 41 41c0 29 -19 44 -53 65
c-20 -16 -33 -34 -33 -58c0 -29 16 -48 45 -48zM263 479c-28 0 -41 -13 -41 -38c0 -29 19 -42 48 -61c22 17 37 31 37 54c0 29 -14 45 -44 45z" />
    <glyph glyph-name="nine" unicode="9" horiz-adv-x="509" 
d="M243 353c15 0 33 2 46 6v18c0 55 -4 93 -50 93c-29 0 -42 -18 -42 -56c0 -42 12 -61 46 -61zM197 219c-121 0 -193 54 -193 197c0 128 71 215 233 215c182 0 256 -87 256 -268c0 -243 -108 -373 -442 -373l8 151c136 0 188 26 214 84c-18 -3 -46 -6 -76 -6z" />
    <glyph glyph-name="onesuperior" unicode="&#xb9;" horiz-adv-x="306" 
d="M238 186h-145v316h-49v79l77 40h117v-435z" />
    <glyph glyph-name="twosuperior" unicode="&#xb2;" horiz-adv-x="396" 
d="M198 631c103 0 153 -51 153 -134s-36 -130 -101 -197v-3h102v-108h-298l-7 76c76 74 152 141 152 198c0 21 -10 34 -33 34c-20 0 -59 -8 -106 -20l-23 122c56 22 107 32 161 32z" />
    <glyph glyph-name="threesuperior" unicode="&#xb3;" horiz-adv-x="405" 
d="M204 631c98 0 154 -46 154 -123c0 -43 -14 -68 -52 -89v-3c40 -18 58 -52 58 -100c0 -84 -56 -134 -165 -134c-51 0 -84 7 -142 29l30 108c44 -13 79 -23 96 -23c20 0 28 11 28 30c0 22 -10 31 -33 31h-61v98h61c18 0 23 9 23 27s-6 29 -28 29c-19 0 -50 -11 -95 -26
l-31 110c58 28 104 36 157 36z" />
    <glyph glyph-name="onehalf" unicode="&#xbd;" horiz-adv-x="896" 
d="M574 621l-199 -621h-147l198 621h148zM238 186h-145v316h-49v79l77 40h117v-435zM698 442c103 0 153 -51 153 -134s-36 -130 -101 -197v-3h102v-108h-298l-7 76c76 74 152 141 152 198c0 21 -10 34 -33 34c-20 0 -59 -8 -106 -20l-23 122c56 22 107 32 161 32z" />
    <glyph glyph-name="onequarter" unicode="&#xbc;" horiz-adv-x="919" 
d="M574 621l-199 -621h-147l198 621h148zM238 186h-145v316h-49v79l77 40h117v-435zM871 82h-47v-82h-145v82h-169l-11 86l152 263h173v-247h53zM683 181v91h-3l-49 -91h52z" />
    <glyph glyph-name="threequarters" unicode="&#xbe;" horiz-adv-x="981" 
d="M649 621l-199 -621h-147l198 621h148zM204 631c98 0 154 -46 154 -123c0 -43 -14 -68 -52 -89v-3c40 -18 58 -52 58 -100c0 -84 -56 -134 -165 -134c-51 0 -84 7 -142 29l30 108c44 -13 79 -23 96 -23c20 0 28 11 28 30c0 22 -10 31 -33 31h-61v98h61c18 0 23 9 23 27
s-6 29 -28 29c-19 0 -50 -11 -95 -26l-31 110c58 28 104 36 157 36zM933 82h-47v-82h-145v82h-169l-11 86l152 263h173v-247h53zM745 181v91h-3l-49 -91h52z" />
    <glyph glyph-name="percent" unicode="%" horiz-adv-x="929" 
d="M638 621l-199 -621h-147l198 621h148zM229 399v13c0 65 0 102 -35 102c-33 0 -33 -37 -33 -102v-13c0 -76 0 -113 36 -113c32 0 32 37 32 113zM369 405c0 -143 -28 -223 -175 -223c-143 0 -174 80 -174 223c0 144 30 226 174 226c147 0 175 -82 175 -226zM769 207v13
c0 65 0 102 -35 102c-33 0 -33 -37 -33 -102v-13c0 -76 0 -113 36 -113c32 0 32 37 32 113zM909 213c0 -143 -28 -223 -175 -223c-143 0 -174 80 -174 223c0 144 30 226 174 226c147 0 175 -82 175 -226z" />
    <glyph glyph-name="perthousand" unicode="&#x2030;" horiz-adv-x="1305" 
d="M638 621l-199 -621h-147l198 621h148zM229 399v13c0 65 0 102 -35 102c-33 0 -33 -37 -33 -102v-13c0 -76 0 -113 36 -113c32 0 32 37 32 113zM369 405c0 -143 -28 -223 -175 -223c-143 0 -174 80 -174 223c0 144 30 226 174 226c147 0 175 -82 175 -226zM769 207v13
c0 65 0 102 -35 102c-33 0 -33 -37 -33 -102v-13c0 -76 0 -113 36 -113c32 0 32 37 32 113zM909 213c0 -143 -28 -223 -175 -223c-143 0 -174 80 -174 223c0 144 30 226 174 226c147 0 175 -82 175 -226zM1145 207v13c0 65 0 102 -35 102c-33 0 -33 -37 -33 -102v-13
c0 -76 0 -113 36 -113c32 0 32 37 32 113zM1285 213c0 -143 -28 -223 -175 -223c-143 0 -174 80 -174 223c0 144 30 226 174 226c147 0 175 -82 175 -226z" />
    <glyph glyph-name="degree" unicode="&#xb0;" horiz-adv-x="344" 
d="M308 497c0 -87 -39 -127 -140 -127c-96 0 -137 40 -137 127c0 86 41 129 137 129c102 0 140 -42 140 -129zM188 497c0 21 -5 28 -20 28c-14 0 -20 -6 -20 -27s6 -30 20 -30s20 9 20 29z" />
    <glyph glyph-name="dollar" unicode="$" horiz-adv-x="527" 
d="M32 421c0 102 50 171 149 198v91h167v-83c41 -4 91 -9 130 -16l-23 -176c-70 14 -130 25 -162 25c-26 0 -41 -6 -41 -24c0 -15 16 -18 39 -28c67 -30 204 -64 204 -206c0 -105 -56 -178 -147 -200v-84h-167v77c-43 4 -91 12 -131 22l14 169c87 -22 139 -34 181 -34
c21 0 31 7 31 22s-13 21 -34 31c-67 32 -210 62 -210 216z" />
    <glyph glyph-name="cent" unicode="&#xa2;" horiz-adv-x="416" 
d="M229 238c0 -65 7 -97 40 -97c29 0 61 5 101 13l22 -139c-31 -9 -58 -15 -85 -20v-77h-167v91c-81 35 -120 115 -120 222c0 108 39 197 120 237v104h167v-85c33 -4 62 -12 93 -23l-21 -158c-36 13 -80 28 -110 28c-32 0 -40 -36 -40 -96z" />
    <glyph glyph-name="Euro" unicode="&#x20ac;" horiz-adv-x="531" 
d="M16 408h55c26 135 111 223 276 223c68 0 116 -12 166 -30l-26 -168c-55 8 -97 15 -130 15c-34 0 -49 -16 -57 -40h184l-13 -99h-191v-19h190l-12 -98h-165c10 -23 34 -35 69 -35c32 0 63 5 110 10l26 -154c-53 -14 -98 -23 -166 -23c-142 0 -230 77 -258 202h-58v98h50
v19h-50v99z" />
    <glyph glyph-name="sterling" unicode="&#xa3;" horiz-adv-x="601" 
d="M322 631c76 0 127 -12 199 -30l-28 -172c-68 17 -103 27 -117 27c-5 0 -8 -3 -8 -8c0 -10 9 -36 18 -64h105l-12 -112h-78v-52c0 -30 -4 -67 -18 -96c13 -5 24 -10 37 -14v75h179c0 -143 -37 -221 -166 -221c-68 0 -104 13 -157 38h-4c-32 -14 -65 -24 -114 -24
c-86 0 -156 35 -156 134c0 79 50 121 129 121c26 0 44 -4 61 -8v47h-98v112h65c-14 29 -24 59 -24 98c0 98 59 149 187 149zM139 98c0 -14 8 -19 22 -19c15 0 23 6 31 15c-11 13 -19 22 -35 22c-13 0 -18 -7 -18 -18z" />
    <glyph glyph-name="florin" unicode="&#x192;" horiz-adv-x="422" 
d="M96 -147c-25 0 -71 5 -106 11l9 154c17 -2 48 -7 55 -7c6 0 9 2 10 8l27 295h-63l12 111h60l6 57c11 102 57 159 176 159c33 0 81 -5 122 -11l-22 -169c-39 6 -54 9 -59 9c-7 0 -8 -5 -9 -11l-3 -34h69l-12 -111h-67l-28 -305c-10 -105 -62 -156 -177 -156z" />
    <glyph glyph-name="yen" unicode="&#xa5;" horiz-adv-x="536" 
d="M536 621l-115 -297h58v-109h-101l-6 -19h107v-107h-107v-89h-213v89h-109v107h109l-6 19h-103v109h61l-111 297h225l44 -228h6l42 228h219z" />
    <glyph glyph-name="Omega" unicode="&#x3a9;" horiz-adv-x="631" 
d="M315 631c198 0 281 -102 281 -283c0 -92 -24 -149 -78 -199v-4h81v-145h-274v135c40 39 56 96 56 186c0 101 -9 138 -69 138s-67 -37 -67 -137c0 -90 20 -149 59 -187v-135h-270v145h75v7c-51 47 -77 116 -77 214c0 174 93 265 283 265z" />
    <glyph glyph-name="Omega" unicode="&#x2126;" horiz-adv-x="631" 
d="M315 631c198 0 281 -102 281 -283c0 -92 -24 -149 -78 -199v-4h81v-145h-274v135c40 39 56 96 56 186c0 101 -9 138 -69 138s-67 -37 -67 -137c0 -90 20 -149 59 -187v-135h-270v145h75v7c-51 47 -77 116 -77 214c0 174 93 265 283 265z" />
    <glyph glyph-name="product" unicode="&#x220f;" horiz-adv-x="611" 
d="M280 0h-211v452h-69v169h611v-169h-65v-452h-211v452h-55v-452z" />
    <glyph glyph-name="pi" unicode="&#x3c0;" horiz-adv-x="557" 
d="M515 0h-211v327h-53v-327h-208v327h-43v152h557v-152h-42v-327z" />
    <glyph glyph-name="summation" unicode="&#x2211;" horiz-adv-x="520" 
d="M496 450h-154l81 -106v-67l-98 -118h183v-159h-478l-7 124l152 180l-163 182l5 135h479v-171z" />
    <glyph glyph-name="Delta" unicode="&#x394;" horiz-adv-x="563" 
d="M0 0l129 621h305l129 -621h-563zM234 180h91l-45 247h-5z" />
    <glyph glyph-name="Delta" unicode="&#x2206;" horiz-adv-x="563" 
d="M0 0l129 621h305l129 -621h-563zM234 180h91l-45 247h-5z" />
    <glyph glyph-name="mu" unicode="&#xb5;" horiz-adv-x="559" 
d="M32 -137v616h210v-306c0 -17 10 -24 26 -24c17 0 27 8 27 24v306h209v-329c0 -18 11 -23 43 -23l-18 -133c-26 -2 -54 -4 -86 -4c-56 0 -94 14 -121 41h-4c-17 -24 -50 -41 -83 -41v-127h-203z" />
    <glyph glyph-name="mu" unicode="&#x3bc;" horiz-adv-x="559" 
d="M32 -137v616h210v-306c0 -17 10 -24 26 -24c17 0 27 8 27 24v306h209v-329c0 -18 11 -23 43 -23l-18 -133c-26 -2 -54 -4 -86 -4c-56 0 -94 14 -121 41h-4c-17 -24 -50 -41 -83 -41v-127h-203z" />
    <glyph glyph-name="infinity" unicode="&#x221e;" horiz-adv-x="726" 
d="M211 463c69 0 111 -36 144 -75h5c35 40 76 75 152 75c126 0 182 -77 182 -194c0 -119 -53 -197 -182 -197c-68 0 -114 35 -147 76h-9c-35 -41 -73 -76 -145 -76c-123 0 -179 73 -179 195c0 121 72 196 179 196zM502 325c-19 0 -45 -22 -67 -61c23 -37 47 -55 67 -55
s30 18 30 58s-10 58 -30 58zM222 325c-20 0 -28 -18 -28 -58s8 -58 28 -58s45 19 68 58c-23 38 -49 58 -68 58z" />
    <glyph glyph-name="plus" unicode="+" horiz-adv-x="476" 
d="M157 84v125h-125v162h125v125h162v-125h125v-162h-125v-125h-162z" />
    <glyph glyph-name="minus" unicode="&#x2212;" horiz-adv-x="476" 
d="M444 209h-412v162h412v-162z" />
    <glyph glyph-name="plusminus" unicode="&#xb1;" horiz-adv-x="476" 
d="M157 181v95h-125v162h125v117h162v-117h125v-162h-125v-95h-162zM444 0h-412v152h412v-152z" />
    <glyph glyph-name="multiply" unicode="&#xd7;" horiz-adv-x="470" 
d="M32 202l88 88l-88 88l115 115l88 -88l88 88l115 -115l-88 -88l88 -88l-115 -115l-88 88l-88 -88z" />
    <glyph glyph-name="divide" unicode="&#xf7;" horiz-adv-x="476" 
d="M144 90c0 54 22 81 99 81c75 0 96 -27 96 -83c0 -48 -21 -77 -96 -77c-77 0 -99 29 -99 79zM144 488c0 54 22 81 99 81c75 0 96 -27 96 -83c0 -48 -21 -77 -96 -77c-77 0 -99 29 -99 79zM444 209h-412v162h412v-162z" />
    <glyph glyph-name="equal" unicode="=" horiz-adv-x="454" 
d="M418 280h-382v147h382v-147zM418 93h-382v147h382v-147z" />
    <glyph glyph-name="notequal" unicode="&#x2260;" horiz-adv-x="454" 
d="M418 93h-168l-16 -48h-164l16 48h-50v147h101l13 40h-114v147h164l27 77h165l-27 -77h53v-147h-103l-14 -40h117v-147z" />
    <glyph glyph-name="less" unicode="&#x3c;" horiz-adv-x="499" 
d="M467 30l-435 177v154l435 172v-160l-238 -88l238 -96v-159z" />
    <glyph glyph-name="greater" unicode="&#x3e;" horiz-adv-x="499" 
d="M467 207l-435 -177v159l238 96l-238 88v160l435 -172v-154z" />
    <glyph glyph-name="partialdiff" unicode="&#x2202;" horiz-adv-x="531" 
d="M220 400c19 0 44 -1 61 -4l4 4c-44 47 -117 64 -215 64v167c304 0 441 -104 441 -366c0 -169 -77 -275 -253 -275c-151 0 -238 60 -238 218c0 126 72 192 200 192zM268 283c-32 0 -36 -38 -36 -89c0 -49 5 -74 32 -74c33 0 36 37 36 88c0 49 -3 75 -32 75z" />
    <glyph glyph-name="logicalnot" unicode="&#xac;" horiz-adv-x="488" 
d="M265 104v105h-233v162h412v-267h-179z" />
    <glyph glyph-name="radical" unicode="&#x221a;" horiz-adv-x="598" 
d="M283 163l135 669h376l-24 -162h-185l-210 -812h-213l-162 621h217l59 -316h7z" />
    <glyph glyph-name="integral" unicode="&#x222b;" horiz-adv-x="441" 
d="M117 162l19 429c7 154 68 241 252 241h95l-10 -162c-110 0 -125 -30 -129 -118l-21 -449c-9 -185 -74 -245 -274 -245h-91l16 174c130 0 139 31 143 130z" />
    <glyph glyph-name="approxequal" unicode="&#x2248;" horiz-adv-x="492" 
d="M452 263v-13c0 -80 -15 -147 -123 -147c-51 0 -89 15 -128 28v-34h-153v14c0 88 24 146 118 146c41 0 84 -14 133 -28v34h153zM444 454v-13c0 -80 -15 -147 -123 -147c-51 0 -89 15 -128 28v-34h-153v14c0 88 24 147 118 147c41 0 83 -14 133 -28v33h153z" />
    <glyph glyph-name="lessequal" unicode="&#x2264;" horiz-adv-x="499" 
d="M467 152l-435 147v154l435 152v-160l-238 -68l238 -66v-159zM467 0h-435v145h435v-145z" />
    <glyph glyph-name="greaterequal" unicode="&#x2265;" horiz-adv-x="499" 
d="M467 299l-435 -147v159l238 66l-238 68v160l435 -152v-154zM467 0h-435v145h435v-145z" />
    <glyph glyph-name="lozenge" unicode="&#x25ca;" horiz-adv-x="577" 
d="M537 296l-188 -351h-124l-185 351l187 351h122zM369 296l-81 165l-80 -165l80 -166z" />
    <glyph glyph-name="period" unicode="." horiz-adv-x="291" 
d="M48 69c0 54 22 81 99 81c75 0 96 -27 96 -83c0 -48 -21 -77 -96 -77c-77 0 -99 29 -99 79z" />
    <glyph glyph-name="comma" unicode="," horiz-adv-x="306" 
d="M158 151c75 0 100 -32 100 -93c0 -85 -61 -132 -123 -170l-87 13l69 93c-43 9 -62 26 -62 75c0 57 32 82 103 82z" />
    <glyph glyph-name="colon" unicode=":" horiz-adv-x="291" 
d="M48 69c0 54 22 81 99 81c75 0 96 -27 96 -83c0 -48 -21 -77 -96 -77c-77 0 -99 29 -99 79zM48 361c0 54 22 81 99 81c75 0 96 -27 96 -83c0 -48 -21 -77 -96 -77c-77 0 -99 29 -99 79z" />
    <glyph glyph-name="semicolon" unicode=";" horiz-adv-x="306" 
d="M55 361c0 54 22 81 99 81c75 0 96 -27 96 -83c0 -48 -21 -77 -96 -77c-77 0 -99 29 -99 79zM158 151c75 0 100 -32 100 -93c0 -85 -61 -132 -123 -170l-87 13l69 93c-43 9 -62 26 -62 75c0 57 32 82 103 82z" />
    <glyph glyph-name="ellipsis" unicode="&#x2026;" horiz-adv-x="775" 
d="M48 69c0 54 22 81 99 81c75 0 96 -27 96 -83c0 -48 -21 -77 -96 -77c-77 0 -99 29 -99 79zM296 69c0 54 22 81 99 81c75 0 96 -27 96 -83c0 -48 -21 -77 -96 -77c-77 0 -99 29 -99 79zM541 69c0 54 22 81 99 81c75 0 96 -27 96 -83c0 -48 -21 -77 -96 -77
c-77 0 -99 29 -99 79z" />
    <glyph glyph-name="periodcentered" unicode="&#xb7;" horiz-adv-x="394" 
d="M84 305c0 63 40 91 117 91c79 0 116 -27 116 -91c0 -68 -37 -91 -116 -91c-77 0 -117 24 -117 91z" />
    <glyph glyph-name="exclamdown" unicode="&#xa1;" horiz-adv-x="330" 
d="M236 308l12 -445h-200l15 445h173zM245 415c0 -54 -22 -81 -99 -81c-75 0 -96 27 -96 83c0 48 21 77 96 77c77 0 99 -29 99 -79z" />
    <glyph glyph-name="exclam" unicode="!" horiz-adv-x="330" 
d="M94 176l-12 445h200l-15 -445h-173zM85 69c0 54 22 81 99 81c75 0 96 -27 96 -83c0 -48 -21 -77 -96 -77c-77 0 -99 29 -99 79z" />
    <glyph glyph-name="questiondown" unicode="&#xbf;" horiz-adv-x="395" 
d="M12 35c0 115 59 157 141 200v68h167v-111c0 -42 -15 -67 -59 -86c-36 -16 -53 -25 -53 -50c0 -22 13 -29 34 -29c20 0 72 10 129 21v-174c-63 -14 -118 -21 -168 -21c-133 0 -191 66 -191 182zM334 410c0 -54 -22 -81 -99 -81c-75 0 -96 27 -96 83c0 48 21 77 96 77
c77 0 99 -29 99 -79z" />
    <glyph glyph-name="question" unicode="?" horiz-adv-x="395" 
d="M383 444c0 -115 -59 -157 -141 -200v-68h-167v111c0 42 15 67 59 86c36 16 53 25 53 50c0 22 -13 29 -34 29c-20 0 -72 -10 -129 -21v174c63 14 118 21 168 21c133 0 191 -66 191 -182zM61 69c0 54 22 81 99 81c75 0 96 -27 96 -83c0 -48 -21 -77 -96 -77
c-77 0 -99 29 -99 79z" />
    <glyph glyph-name="quotedbl" unicode="&#x22;" horiz-adv-x="488" 
d="M146 655c75 0 100 -32 100 -93c0 -85 -61 -132 -123 -170l-87 13l69 93c-43 9 -62 26 -62 75c0 57 32 82 103 82zM364 655c75 0 100 -32 100 -93c0 -85 -61 -132 -123 -170l-87 13l69 93c-43 9 -62 26 -62 75c0 57 32 82 103 82z" />
    <glyph glyph-name="quotesingle" unicode="'" horiz-adv-x="252" 
d="M148 655c75 0 100 -32 100 -93c0 -85 -61 -132 -123 -170l-87 13l69 93c-43 9 -62 26 -62 75c0 57 32 82 103 82z" />
    <glyph glyph-name="quotedblleft" unicode="&#x201c;" horiz-adv-x="488" 
d="M342 392c-75 0 -100 32 -100 93c0 85 61 132 123 170l87 -13l-69 -93c43 -9 62 -26 62 -75c0 -57 -32 -82 -103 -82zM124 392c-75 0 -100 32 -100 93c0 85 61 132 123 170l87 -13l-69 -93c43 -9 62 -26 62 -75c0 -57 -32 -82 -103 -82z" />
    <glyph glyph-name="quotedblright" unicode="&#x201d;" horiz-adv-x="488" 
d="M146 655c75 0 100 -32 100 -93c0 -85 -61 -132 -123 -170l-87 13l69 93c-43 9 -62 26 -62 75c0 57 32 82 103 82zM364 655c75 0 100 -32 100 -93c0 -85 -61 -132 -123 -170l-87 13l69 93c-43 9 -62 26 -62 75c0 57 32 82 103 82z" />
    <glyph glyph-name="quoteleft" unicode="&#x2018;" horiz-adv-x="270" 
d="M124 392c-75 0 -100 32 -100 93c0 85 61 132 123 170l87 -13l-69 -93c43 -9 62 -26 62 -75c0 -57 -32 -82 -103 -82z" />
    <glyph glyph-name="quoteright" unicode="&#x2019;" horiz-adv-x="270" 
d="M146 655c75 0 100 -32 100 -93c0 -85 -61 -132 -123 -170l-87 13l69 93c-43 9 -62 26 -62 75c0 57 32 82 103 82z" />
    <glyph glyph-name="quotesinglbase" unicode="&#x201a;" horiz-adv-x="270" 
d="M134 148c75 0 100 -32 100 -93c0 -85 -61 -132 -123 -170l-87 13l69 93c-43 9 -62 26 -62 75c0 57 32 82 103 82z" />
    <glyph glyph-name="quotedblbase" unicode="&#x201e;" horiz-adv-x="488" 
d="M134 148c75 0 100 -32 100 -93c0 -85 -61 -132 -123 -170l-87 13l69 93c-43 9 -62 26 -62 75c0 57 32 82 103 82zM352 148c75 0 100 -32 100 -93c0 -85 -61 -132 -123 -170l-87 13l69 93c-43 9 -62 26 -62 75c0 57 32 82 103 82z" />
    <glyph glyph-name="guillemotleft" unicode="&#xab;" horiz-adv-x="585" 
d="M4 205v66l204 211l108 -69l-116 -171l119 -171l-117 -72zM250 205v66l204 211l108 -69l-116 -171l119 -171l-117 -72z" />
    <glyph glyph-name="guillemotright" unicode="&#xbb;" horiz-adv-x="585" 
d="M581 276v-66l-204 -211l-108 69l116 171l-119 171l117 72zM335 276v-66l-204 -211l-108 69l116 171l-119 171l117 72z" />
    <glyph glyph-name="guilsinglleft" unicode="&#x2039;" horiz-adv-x="339" 
d="M4 205v66l204 211l108 -69l-116 -171l119 -171l-117 -72z" />
    <glyph glyph-name="guilsinglright" unicode="&#x203a;" horiz-adv-x="339" 
d="M335 276v-66l-204 -211l-108 69l116 171l-119 171l117 72z" />
    <glyph glyph-name="hyphen" unicode="-" horiz-adv-x="403" 
d="M371 179h-339v162h339v-162z" />
    <glyph glyph-name="endash" unicode="&#x2013;" horiz-adv-x="407" 
d="M32 167v162h343v-162h-343z" />
    <glyph glyph-name="emdash" unicode="&#x2014;" horiz-adv-x="600" 
d="M32 167v162h536v-162h-536z" />
    <glyph glyph-name="underscore" unicode="_" horiz-adv-x="400" 
d="M400 -137h-400v115h400v-115z" />
    <glyph glyph-name="parenleft" unicode="(" horiz-adv-x="388" 
d="M216 645l156 -48c-82 -109 -118 -216 -118 -342c0 -131 44 -246 118 -363l-162 -39c-107 104 -186 215 -186 401c0 171 66 287 192 391z" />
    <glyph glyph-name="parenright" unicode=")" horiz-adv-x="388" 
d="M364 254c0 -178 -79 -297 -187 -401l-161 39c79 115 119 234 119 363c0 126 -37 232 -119 341l157 49c124 -104 191 -224 191 -391z" />
    <glyph glyph-name="bracketleft" unicode="[" horiz-adv-x="379" 
d="M335 -137h-283v768h283v-141h-72v-487h72v-140z" />
    <glyph glyph-name="bracketright" unicode="]" horiz-adv-x="380" 
d="M328 -137h-284v140h74v487h-74v141h284v-768z" />
    <glyph glyph-name="braceleft" unicode="{" horiz-adv-x="394" 
d="M350 -137h-133c-104 0 -145 37 -145 133v158c0 29 -12 29 -60 29v139c51 0 60 0 60 28v140c0 104 38 141 145 141h133v-144h-76v-158c0 -49 -14 -60 -42 -75v-6c28 -14 42 -30 42 -74v-172h76v-139z" />
    <glyph glyph-name="braceright" unicode="}" horiz-adv-x="394" 
d="M177 -137h-133v139h76v172c0 44 14 60 42 74v6c-28 15 -42 26 -42 75v158h-76v144h133c107 0 145 -37 145 -141v-140c0 -28 9 -28 60 -28v-139c-48 0 -60 0 -60 -29v-158c0 -96 -41 -133 -145 -133z" />
    <glyph glyph-name="slash" unicode="/" horiz-adv-x="417" 
d="M432 616l-243 -758h-204l242 758h205z" />
    <glyph glyph-name="backslash" unicode="\" horiz-adv-x="417" 
d="M228 -142l-243 758h205l242 -758h-204z" />
    <glyph glyph-name="bar" unicode="|" horiz-adv-x="377" 
d="M287 -142h-197v758h197v-758z" />
    <glyph glyph-name="brokenbar" unicode="&#xa6;" horiz-adv-x="377" 
d="M287 -142h-197v319h197v-319zM287 616v-291h-197v291h197z" />
    <glyph glyph-name="fraction" unicode="&#x2044;" horiz-adv-x="417" 
d="M432 616l-243 -758h-204l242 758h205z" />
    <glyph glyph-name="grave" unicode="`" 
d="M237 517l-127 130h201l68 -130h-142z" />
    <glyph glyph-name="circumflex" unicode="&#x2c6;" 
d="M339 642l78 -131h-131l-35 52l-36 -52h-132l78 131h178z" />
    <glyph glyph-name="acute" unicode="&#xb4;" 
d="M451 647l-139 -130h-139l64 130h214z" />
    <glyph glyph-name="dieresis" unicode="&#xa8;" 
d="M82 576c0 43 29 65 75 65c55 0 80 -22 80 -65c0 -46 -25 -66 -80 -66c-46 0 -75 19 -75 66zM268 576c0 43 29 65 75 65c55 0 80 -22 80 -65c0 -46 -25 -66 -80 -66c-46 0 -75 19 -75 66z" />
    <glyph glyph-name="tilde" unicode="&#x2dc;" 
d="M433 657v-12c0 -74 -13 -136 -107 -136c-44 0 -77 14 -111 26v-32h-133v13c0 82 21 136 102 136c36 0 73 -13 116 -26v31h133z" />
    <glyph glyph-name="caron" unicode="&#x2c7;" 
d="M161 515l-78 131h131l35 -52l36 52h132l-78 -131h-178z" />
    <glyph glyph-name="ring" unicode="&#x2da;" 
d="M233 586c0 -15 5 -26 20 -26c17 0 20 11 20 26s-4 28 -20 28c-15 0 -20 -13 -20 -28zM253 668c71 0 103 -27 103 -79c0 -55 -32 -84 -103 -84c-67 0 -102 30 -102 79c0 57 35 84 102 84z" />
    <glyph glyph-name="dotaccent" unicode="&#x2d9;" 
d="M154 570c0 60 40 85 107 85c70 0 107 -24 107 -85s-37 -82 -107 -82c-68 0 -107 20 -107 82z" />
    <glyph glyph-name="hungarumlaut" unicode="&#x2dd;" 
d="M303 656l-130 -136h-111l80 136h161zM501 656l-146 -136h-112l87 136h171z" />
    <glyph glyph-name="cedilla" unicode="&#xb8;" 
d="M378 -94c0 -49 -40 -74 -109 -74c-42 0 -78 9 -109 30l37 71c25 -17 52 -31 70 -31c4 0 7 2 7 6s-7 8 -13 11l-26 12c-14 8 -23 16 -23 32c0 15 9 27 22 37h89c-7 -7 -15 -15 -15 -21c0 -11 70 -17 70 -73z" />
    <glyph glyph-name="ogonek" unicode="&#x2db;" horiz-adv-x="570" 
d="M175 -96c0 43 31 71 66 96h109c-29 -30 -54 -56 -54 -77c0 -4 2 -5 5 -5c12 0 29 9 46 19l30 -70c-33 -23 -62 -35 -111 -35c-52 0 -91 20 -91 72z" />
    <glyph glyph-name="macron" unicode="&#xaf;" 
d="M413 521h-315v121h315v-121z" />
    <glyph glyph-name="breve" unicode="&#x2d8;" 
d="M252 614c19 0 23 19 23 46h135c-3 -108 -59 -162 -162 -162c-102 0 -158 52 -158 162h137c0 -27 4 -46 25 -46z" />
    <glyph glyph-name="asciicircum" unicode="^" 
d="M339 642l78 -131h-131l-35 52l-36 -52h-132l78 131h178z" />
    <glyph glyph-name="asciitilde" unicode="~" 
d="M433 657v-12c0 -74 -13 -136 -107 -136c-44 0 -77 14 -111 26v-32h-133v13c0 82 21 136 102 136c36 0 73 -13 116 -26v31h133z" />
    <glyph glyph-name="space" unicode=" " horiz-adv-x="190" 
 />
    <glyph glyph-name="nbspace" unicode="&#xa0;" horiz-adv-x="190" 
 />
    <glyph glyph-name="bullet" unicode="&#x2022;" horiz-adv-x="413" 
d="M82 306c0 81 37 124 127 124c85 0 122 -41 122 -124c0 -86 -40 -127 -122 -127c-80 0 -127 34 -127 127z" />
    <glyph glyph-name="commaaccent" 
d="M252 -10c51 0 82 -24 82 -64c0 -44 -34 -70 -81 -90l-75 9l42 42c-28 5 -50 19 -50 48c0 36 31 55 82 55z" />
    <glyph glyph-name="dotaccentcmb" unicode="&#x307;" 
d="M142 570c0 60 40 85 107 85c70 0 107 -24 107 -85s-37 -82 -107 -82c-68 0 -107 20 -107 82z" />
    <glyph glyph-name="currency" unicode="&#xa4;" horiz-adv-x="779" 
d="M48 468l31 53l120 -69c46 60 108 90 192 90c87 0 153 -32 196 -88l114 67c13 -22 19 -36 30 -53l-117 -68c9 -31 13 -61 13 -93c0 -37 -8 -75 -20 -110l120 -71c-13 -23 -20 -31 -32 -51l-120 71c-46 -49 -106 -74 -184 -74c-80 0 -140 26 -185 76l-122 -72
c-13 24 -18 30 -30 50l124 72c-12 38 -17 73 -17 109c0 29 4 58 12 88zM391 122c115 0 174 60 174 184c0 114 -55 184 -174 184c-110 0 -172 -58 -172 -185c0 -123 65 -183 172 -183z" />
    <glyph glyph-name="foundryicon" horiz-adv-x="1241" 
d="M186 157l-146 143l146 141l40 -32l-88 -84h248c-4 20 -6 40 -6 62c0 109 62 182 155 182c70 0 102 -25 133 -68c30 44 68 68 136 68c96 0 153 -74 153 -182c0 -22 -3 -42 -7 -62h201v116h50v-284h-50v116h-216c-59 -152 -220 -250 -268 -250c-53 0 -209 98 -266 250h-262
l87 -85zM668 73c68 10 237 148 237 305c0 86 -40 143 -115 143c-64 0 -98 -41 -114 -84h-16c-16 44 -51 84 -114 84c-73 0 -114 -56 -114 -145c0 -18 2 -35 5 -51h198v-52h-180c47 -109 156 -192 213 -200z" />
    <glyph glyph-name=".null" horiz-adv-x="0" 
 />
    <glyph glyph-name="CR" horiz-adv-x="0" 
 />
  </font>
</defs>
</svg>
